<mxfile host="app.diagrams.net" modified="2023-06-21T06:08:46.808Z" agent="Mozilla/5.0 (Windows NT 10.0; Win64; x64) AppleWebKit/537.36 (KHTML, like Gecko) Chrome/114.0.0.0 Safari/537.36" etag="_EMugaYAHTuQcsczbipS" version="21.5.0" type="device">
  <diagram name="第 1 页" id="q5DQG7aLl0p86B2gbOSc">
    <mxGraphModel dx="2927" dy="2219" grid="1" gridSize="10" guides="1" tooltips="1" connect="1" arrows="1" fold="1" page="1" pageScale="1" pageWidth="827" pageHeight="1169" math="0" shadow="0">
      <root>
        <mxCell id="0" />
        <mxCell id="1" parent="0" />
        <mxCell id="CgorFY5DSfvTP4QPdiob-62" style="edgeStyle=orthogonalEdgeStyle;rounded=0;orthogonalLoop=1;jettySize=auto;html=1;exitX=0.5;exitY=1;exitDx=0;exitDy=0;entryX=0.5;entryY=0;entryDx=0;entryDy=0;fillColor=#d80073;strokeColor=#A50040;strokeWidth=3;" edge="1" parent="1" source="CgorFY5DSfvTP4QPdiob-1" target="CgorFY5DSfvTP4QPdiob-4">
          <mxGeometry relative="1" as="geometry" />
        </mxCell>
        <mxCell id="CgorFY5DSfvTP4QPdiob-89" style="edgeStyle=orthogonalEdgeStyle;rounded=0;orthogonalLoop=1;jettySize=auto;html=1;exitX=0.25;exitY=1;exitDx=0;exitDy=0;entryX=0.25;entryY=0;entryDx=0;entryDy=0;fillColor=#60a917;strokeColor=#2D7600;strokeWidth=3;" edge="1" parent="1" source="CgorFY5DSfvTP4QPdiob-1" target="CgorFY5DSfvTP4QPdiob-4">
          <mxGeometry relative="1" as="geometry" />
        </mxCell>
        <mxCell id="CgorFY5DSfvTP4QPdiob-136" style="edgeStyle=orthogonalEdgeStyle;rounded=0;orthogonalLoop=1;jettySize=auto;html=1;exitX=0.75;exitY=1;exitDx=0;exitDy=0;entryX=0.75;entryY=0;entryDx=0;entryDy=0;fillColor=#e3c800;strokeColor=#B09500;strokeWidth=3;" edge="1" parent="1" source="CgorFY5DSfvTP4QPdiob-1" target="CgorFY5DSfvTP4QPdiob-4">
          <mxGeometry relative="1" as="geometry" />
        </mxCell>
        <mxCell id="CgorFY5DSfvTP4QPdiob-175" style="edgeStyle=orthogonalEdgeStyle;rounded=0;orthogonalLoop=1;jettySize=auto;html=1;exitX=0;exitY=1;exitDx=0;exitDy=0;entryX=0;entryY=0;entryDx=0;entryDy=0;fillColor=#fa6800;strokeColor=#C73500;strokeWidth=3;" edge="1" parent="1" source="CgorFY5DSfvTP4QPdiob-1" target="CgorFY5DSfvTP4QPdiob-4">
          <mxGeometry relative="1" as="geometry" />
        </mxCell>
        <mxCell id="CgorFY5DSfvTP4QPdiob-209" style="edgeStyle=orthogonalEdgeStyle;rounded=0;orthogonalLoop=1;jettySize=auto;html=1;exitX=1;exitY=1;exitDx=0;exitDy=0;entryX=1;entryY=0;entryDx=0;entryDy=0;fillColor=#bac8d3;strokeColor=#23445d;strokeWidth=3;" edge="1" parent="1" source="CgorFY5DSfvTP4QPdiob-1" target="CgorFY5DSfvTP4QPdiob-4">
          <mxGeometry relative="1" as="geometry" />
        </mxCell>
        <mxCell id="CgorFY5DSfvTP4QPdiob-1" value="&lt;b&gt;SA93012&lt;/b&gt;&lt;br&gt;Axle assembly" style="rounded=1;whiteSpace=wrap;html=1;fillColor=#ffe6cc;strokeColor=#d79b00;strokeWidth=3;" vertex="1" parent="1">
          <mxGeometry x="160" y="80" width="120" height="80" as="geometry" />
        </mxCell>
        <mxCell id="CgorFY5DSfvTP4QPdiob-63" style="edgeStyle=orthogonalEdgeStyle;rounded=0;orthogonalLoop=1;jettySize=auto;html=1;exitX=0.5;exitY=1;exitDx=0;exitDy=0;entryX=0.5;entryY=0;entryDx=0;entryDy=0;fillColor=#d80073;strokeColor=#A50040;strokeWidth=3;" edge="1" parent="1" source="CgorFY5DSfvTP4QPdiob-4" target="CgorFY5DSfvTP4QPdiob-5">
          <mxGeometry relative="1" as="geometry" />
        </mxCell>
        <mxCell id="CgorFY5DSfvTP4QPdiob-90" style="edgeStyle=orthogonalEdgeStyle;rounded=0;orthogonalLoop=1;jettySize=auto;html=1;exitX=0.25;exitY=1;exitDx=0;exitDy=0;entryX=0.25;entryY=0;entryDx=0;entryDy=0;fillColor=#60a917;strokeColor=#2D7600;strokeWidth=3;" edge="1" parent="1" source="CgorFY5DSfvTP4QPdiob-4" target="CgorFY5DSfvTP4QPdiob-5">
          <mxGeometry relative="1" as="geometry">
            <mxPoint x="190.14285714285734" y="310" as="targetPoint" />
          </mxGeometry>
        </mxCell>
        <mxCell id="CgorFY5DSfvTP4QPdiob-137" style="edgeStyle=orthogonalEdgeStyle;rounded=0;orthogonalLoop=1;jettySize=auto;html=1;exitX=0.75;exitY=1;exitDx=0;exitDy=0;entryX=0.75;entryY=0;entryDx=0;entryDy=0;fillColor=#e3c800;strokeColor=#B09500;strokeWidth=3;" edge="1" parent="1" source="CgorFY5DSfvTP4QPdiob-4" target="CgorFY5DSfvTP4QPdiob-5">
          <mxGeometry relative="1" as="geometry" />
        </mxCell>
        <mxCell id="CgorFY5DSfvTP4QPdiob-176" style="edgeStyle=orthogonalEdgeStyle;rounded=0;orthogonalLoop=1;jettySize=auto;html=1;exitX=0;exitY=1;exitDx=0;exitDy=0;entryX=0;entryY=0;entryDx=0;entryDy=0;fillColor=#fa6800;strokeColor=#C73500;strokeWidth=3;" edge="1" parent="1" source="CgorFY5DSfvTP4QPdiob-4" target="CgorFY5DSfvTP4QPdiob-5">
          <mxGeometry relative="1" as="geometry" />
        </mxCell>
        <mxCell id="CgorFY5DSfvTP4QPdiob-210" style="edgeStyle=orthogonalEdgeStyle;rounded=0;orthogonalLoop=1;jettySize=auto;html=1;exitX=1;exitY=1;exitDx=0;exitDy=0;entryX=1;entryY=0;entryDx=0;entryDy=0;fillColor=#bac8d3;strokeColor=#23445d;strokeWidth=3;" edge="1" parent="1" source="CgorFY5DSfvTP4QPdiob-4" target="CgorFY5DSfvTP4QPdiob-5">
          <mxGeometry relative="1" as="geometry" />
        </mxCell>
        <mxCell id="CgorFY5DSfvTP4QPdiob-4" value="&lt;b&gt;SA93021&lt;/b&gt;&lt;br&gt;loading" style="rounded=1;whiteSpace=wrap;html=1;fillColor=#ffe6cc;strokeColor=#d79b00;strokeWidth=3;" vertex="1" parent="1">
          <mxGeometry x="160" y="200" width="120" height="80" as="geometry" />
        </mxCell>
        <mxCell id="CgorFY5DSfvTP4QPdiob-64" style="edgeStyle=orthogonalEdgeStyle;rounded=0;orthogonalLoop=1;jettySize=auto;html=1;exitX=0.5;exitY=1;exitDx=0;exitDy=0;entryX=0.5;entryY=0;entryDx=0;entryDy=0;fillColor=#d80073;strokeColor=#A50040;strokeWidth=3;" edge="1" parent="1" source="CgorFY5DSfvTP4QPdiob-5" target="CgorFY5DSfvTP4QPdiob-6">
          <mxGeometry relative="1" as="geometry" />
        </mxCell>
        <mxCell id="CgorFY5DSfvTP4QPdiob-91" style="edgeStyle=orthogonalEdgeStyle;rounded=0;orthogonalLoop=1;jettySize=auto;html=1;exitX=0.25;exitY=1;exitDx=0;exitDy=0;entryX=0.25;entryY=0;entryDx=0;entryDy=0;fillColor=#60a917;strokeColor=#2D7600;strokeWidth=3;" edge="1" parent="1" source="CgorFY5DSfvTP4QPdiob-5" target="CgorFY5DSfvTP4QPdiob-6">
          <mxGeometry relative="1" as="geometry" />
        </mxCell>
        <mxCell id="CgorFY5DSfvTP4QPdiob-138" style="edgeStyle=orthogonalEdgeStyle;rounded=0;orthogonalLoop=1;jettySize=auto;html=1;exitX=0.75;exitY=1;exitDx=0;exitDy=0;entryX=0.75;entryY=0;entryDx=0;entryDy=0;fillColor=#e3c800;strokeColor=#B09500;strokeWidth=3;" edge="1" parent="1" source="CgorFY5DSfvTP4QPdiob-5" target="CgorFY5DSfvTP4QPdiob-6">
          <mxGeometry relative="1" as="geometry" />
        </mxCell>
        <mxCell id="CgorFY5DSfvTP4QPdiob-177" style="edgeStyle=orthogonalEdgeStyle;rounded=0;orthogonalLoop=1;jettySize=auto;html=1;exitX=0;exitY=1;exitDx=0;exitDy=0;entryX=0;entryY=0;entryDx=0;entryDy=0;fillColor=#fa6800;strokeColor=#C73500;strokeWidth=3;" edge="1" parent="1" source="CgorFY5DSfvTP4QPdiob-5" target="CgorFY5DSfvTP4QPdiob-6">
          <mxGeometry relative="1" as="geometry" />
        </mxCell>
        <mxCell id="CgorFY5DSfvTP4QPdiob-211" style="edgeStyle=orthogonalEdgeStyle;rounded=0;orthogonalLoop=1;jettySize=auto;html=1;exitX=1;exitY=1;exitDx=0;exitDy=0;entryX=1;entryY=0;entryDx=0;entryDy=0;fillColor=#bac8d3;strokeColor=#23445d;strokeWidth=3;" edge="1" parent="1" source="CgorFY5DSfvTP4QPdiob-5" target="CgorFY5DSfvTP4QPdiob-6">
          <mxGeometry relative="1" as="geometry" />
        </mxCell>
        <mxCell id="CgorFY5DSfvTP4QPdiob-5" value="&lt;b&gt;SA93022&lt;/b&gt;&lt;br&gt;stator pre-assembly" style="rounded=1;whiteSpace=wrap;html=1;fillColor=#ffe6cc;strokeColor=#d79b00;strokeWidth=3;" vertex="1" parent="1">
          <mxGeometry x="160" y="320" width="120" height="80" as="geometry" />
        </mxCell>
        <mxCell id="CgorFY5DSfvTP4QPdiob-65" style="edgeStyle=orthogonalEdgeStyle;rounded=0;orthogonalLoop=1;jettySize=auto;html=1;exitX=0.5;exitY=1;exitDx=0;exitDy=0;entryX=0.5;entryY=0;entryDx=0;entryDy=0;fillColor=#d80073;strokeColor=#A50040;strokeWidth=3;" edge="1" parent="1" source="CgorFY5DSfvTP4QPdiob-6" target="CgorFY5DSfvTP4QPdiob-7">
          <mxGeometry relative="1" as="geometry" />
        </mxCell>
        <mxCell id="CgorFY5DSfvTP4QPdiob-92" style="edgeStyle=orthogonalEdgeStyle;rounded=0;orthogonalLoop=1;jettySize=auto;html=1;exitX=0.25;exitY=1;exitDx=0;exitDy=0;entryX=0.25;entryY=0;entryDx=0;entryDy=0;fillColor=#60a917;strokeColor=#2D7600;strokeWidth=3;" edge="1" parent="1" source="CgorFY5DSfvTP4QPdiob-6" target="CgorFY5DSfvTP4QPdiob-7">
          <mxGeometry relative="1" as="geometry" />
        </mxCell>
        <mxCell id="CgorFY5DSfvTP4QPdiob-139" style="edgeStyle=orthogonalEdgeStyle;rounded=0;orthogonalLoop=1;jettySize=auto;html=1;exitX=0.75;exitY=1;exitDx=0;exitDy=0;entryX=0.75;entryY=0;entryDx=0;entryDy=0;fillColor=#e3c800;strokeColor=#B09500;strokeWidth=3;" edge="1" parent="1" source="CgorFY5DSfvTP4QPdiob-6" target="CgorFY5DSfvTP4QPdiob-7">
          <mxGeometry relative="1" as="geometry" />
        </mxCell>
        <mxCell id="CgorFY5DSfvTP4QPdiob-178" style="edgeStyle=orthogonalEdgeStyle;rounded=0;orthogonalLoop=1;jettySize=auto;html=1;exitX=0;exitY=1;exitDx=0;exitDy=0;entryX=0;entryY=0;entryDx=0;entryDy=0;fillColor=#fa6800;strokeColor=#C73500;strokeWidth=3;" edge="1" parent="1" source="CgorFY5DSfvTP4QPdiob-6" target="CgorFY5DSfvTP4QPdiob-7">
          <mxGeometry relative="1" as="geometry" />
        </mxCell>
        <mxCell id="CgorFY5DSfvTP4QPdiob-212" style="edgeStyle=orthogonalEdgeStyle;rounded=0;orthogonalLoop=1;jettySize=auto;html=1;exitX=1;exitY=1;exitDx=0;exitDy=0;entryX=1;entryY=0;entryDx=0;entryDy=0;fillColor=#bac8d3;strokeColor=#23445d;strokeWidth=3;" edge="1" parent="1" source="CgorFY5DSfvTP4QPdiob-6" target="CgorFY5DSfvTP4QPdiob-7">
          <mxGeometry relative="1" as="geometry" />
        </mxCell>
        <mxCell id="CgorFY5DSfvTP4QPdiob-6" value="&lt;b&gt;SA93023&lt;/b&gt;&lt;br&gt;stator screwing_1" style="rounded=1;whiteSpace=wrap;html=1;fillColor=#ffe6cc;strokeColor=#d79b00;strokeWidth=3;" vertex="1" parent="1">
          <mxGeometry x="160" y="440" width="120" height="80" as="geometry" />
        </mxCell>
        <mxCell id="CgorFY5DSfvTP4QPdiob-66" style="edgeStyle=orthogonalEdgeStyle;rounded=0;orthogonalLoop=1;jettySize=auto;html=1;exitX=0.5;exitY=1;exitDx=0;exitDy=0;entryX=0.5;entryY=0;entryDx=0;entryDy=0;fillColor=#d80073;strokeColor=#A50040;strokeWidth=3;" edge="1" parent="1" source="CgorFY5DSfvTP4QPdiob-7" target="CgorFY5DSfvTP4QPdiob-8">
          <mxGeometry relative="1" as="geometry" />
        </mxCell>
        <mxCell id="CgorFY5DSfvTP4QPdiob-93" style="edgeStyle=orthogonalEdgeStyle;rounded=0;orthogonalLoop=1;jettySize=auto;html=1;exitX=0.25;exitY=1;exitDx=0;exitDy=0;entryX=0.25;entryY=0;entryDx=0;entryDy=0;fillColor=#60a917;strokeColor=#2D7600;strokeWidth=3;" edge="1" parent="1" source="CgorFY5DSfvTP4QPdiob-7" target="CgorFY5DSfvTP4QPdiob-8">
          <mxGeometry relative="1" as="geometry" />
        </mxCell>
        <mxCell id="CgorFY5DSfvTP4QPdiob-140" style="edgeStyle=orthogonalEdgeStyle;rounded=0;orthogonalLoop=1;jettySize=auto;html=1;exitX=0.75;exitY=1;exitDx=0;exitDy=0;entryX=0.75;entryY=0;entryDx=0;entryDy=0;fillColor=#e3c800;strokeColor=#B09500;strokeWidth=3;" edge="1" parent="1" source="CgorFY5DSfvTP4QPdiob-7" target="CgorFY5DSfvTP4QPdiob-8">
          <mxGeometry relative="1" as="geometry" />
        </mxCell>
        <mxCell id="CgorFY5DSfvTP4QPdiob-179" style="edgeStyle=orthogonalEdgeStyle;rounded=0;orthogonalLoop=1;jettySize=auto;html=1;exitX=0;exitY=1;exitDx=0;exitDy=0;entryX=0;entryY=0;entryDx=0;entryDy=0;fillColor=#fa6800;strokeColor=#C73500;strokeWidth=3;" edge="1" parent="1" source="CgorFY5DSfvTP4QPdiob-7" target="CgorFY5DSfvTP4QPdiob-8">
          <mxGeometry relative="1" as="geometry" />
        </mxCell>
        <mxCell id="CgorFY5DSfvTP4QPdiob-213" style="edgeStyle=orthogonalEdgeStyle;rounded=0;orthogonalLoop=1;jettySize=auto;html=1;exitX=1;exitY=1;exitDx=0;exitDy=0;entryX=1;entryY=0;entryDx=0;entryDy=0;fillColor=#bac8d3;strokeColor=#23445d;strokeWidth=3;" edge="1" parent="1" source="CgorFY5DSfvTP4QPdiob-7" target="CgorFY5DSfvTP4QPdiob-8">
          <mxGeometry relative="1" as="geometry" />
        </mxCell>
        <mxCell id="CgorFY5DSfvTP4QPdiob-7" value="&lt;b&gt;SA93024&lt;/b&gt;&lt;br&gt;stator screwing_2" style="rounded=1;whiteSpace=wrap;html=1;fillColor=#ffe6cc;strokeColor=#d79b00;strokeWidth=3;" vertex="1" parent="1">
          <mxGeometry x="160" y="560" width="120" height="80" as="geometry" />
        </mxCell>
        <mxCell id="CgorFY5DSfvTP4QPdiob-67" style="edgeStyle=orthogonalEdgeStyle;rounded=0;orthogonalLoop=1;jettySize=auto;html=1;exitX=0.5;exitY=1;exitDx=0;exitDy=0;entryX=0.5;entryY=0;entryDx=0;entryDy=0;fillColor=#d80073;strokeColor=#A50040;strokeWidth=3;" edge="1" parent="1" source="CgorFY5DSfvTP4QPdiob-8" target="CgorFY5DSfvTP4QPdiob-9">
          <mxGeometry relative="1" as="geometry" />
        </mxCell>
        <mxCell id="CgorFY5DSfvTP4QPdiob-94" style="edgeStyle=orthogonalEdgeStyle;rounded=0;orthogonalLoop=1;jettySize=auto;html=1;exitX=0.25;exitY=1;exitDx=0;exitDy=0;entryX=0.25;entryY=0;entryDx=0;entryDy=0;fillColor=#60a917;strokeColor=#2D7600;strokeWidth=3;" edge="1" parent="1" source="CgorFY5DSfvTP4QPdiob-8" target="CgorFY5DSfvTP4QPdiob-9">
          <mxGeometry relative="1" as="geometry" />
        </mxCell>
        <mxCell id="CgorFY5DSfvTP4QPdiob-142" style="edgeStyle=orthogonalEdgeStyle;rounded=0;orthogonalLoop=1;jettySize=auto;html=1;exitX=0.75;exitY=1;exitDx=0;exitDy=0;entryX=0.75;entryY=0;entryDx=0;entryDy=0;fillColor=#e3c800;strokeColor=#B09500;strokeWidth=3;" edge="1" parent="1" source="CgorFY5DSfvTP4QPdiob-8" target="CgorFY5DSfvTP4QPdiob-9">
          <mxGeometry relative="1" as="geometry" />
        </mxCell>
        <mxCell id="CgorFY5DSfvTP4QPdiob-180" style="edgeStyle=orthogonalEdgeStyle;rounded=0;orthogonalLoop=1;jettySize=auto;html=1;exitX=0;exitY=1;exitDx=0;exitDy=0;entryX=0;entryY=0;entryDx=0;entryDy=0;fillColor=#fa6800;strokeColor=#C73500;strokeWidth=3;" edge="1" parent="1" source="CgorFY5DSfvTP4QPdiob-8" target="CgorFY5DSfvTP4QPdiob-9">
          <mxGeometry relative="1" as="geometry" />
        </mxCell>
        <mxCell id="CgorFY5DSfvTP4QPdiob-214" style="edgeStyle=orthogonalEdgeStyle;rounded=0;orthogonalLoop=1;jettySize=auto;html=1;exitX=1;exitY=1;exitDx=0;exitDy=0;entryX=1;entryY=0;entryDx=0;entryDy=0;fillColor=#bac8d3;strokeColor=#23445d;strokeWidth=3;" edge="1" parent="1" source="CgorFY5DSfvTP4QPdiob-8" target="CgorFY5DSfvTP4QPdiob-9">
          <mxGeometry relative="1" as="geometry" />
        </mxCell>
        <mxCell id="CgorFY5DSfvTP4QPdiob-8" value="&lt;b&gt;SA93025&lt;/b&gt;&lt;br&gt;Rotor axle grease" style="rounded=1;whiteSpace=wrap;html=1;fillColor=#ffe6cc;strokeColor=#d79b00;strokeWidth=3;" vertex="1" parent="1">
          <mxGeometry x="160" y="680" width="120" height="80" as="geometry" />
        </mxCell>
        <mxCell id="CgorFY5DSfvTP4QPdiob-68" style="edgeStyle=orthogonalEdgeStyle;rounded=0;orthogonalLoop=1;jettySize=auto;html=1;exitX=0.5;exitY=1;exitDx=0;exitDy=0;entryX=0.5;entryY=0;entryDx=0;entryDy=0;fillColor=#d80073;strokeColor=#A50040;strokeWidth=3;" edge="1" parent="1" source="CgorFY5DSfvTP4QPdiob-9" target="CgorFY5DSfvTP4QPdiob-10">
          <mxGeometry relative="1" as="geometry" />
        </mxCell>
        <mxCell id="CgorFY5DSfvTP4QPdiob-95" style="edgeStyle=orthogonalEdgeStyle;rounded=0;orthogonalLoop=1;jettySize=auto;html=1;exitX=0.25;exitY=1;exitDx=0;exitDy=0;entryX=0.25;entryY=0;entryDx=0;entryDy=0;fillColor=#60a917;strokeColor=#2D7600;strokeWidth=3;" edge="1" parent="1" source="CgorFY5DSfvTP4QPdiob-9" target="CgorFY5DSfvTP4QPdiob-10">
          <mxGeometry relative="1" as="geometry" />
        </mxCell>
        <mxCell id="CgorFY5DSfvTP4QPdiob-143" style="edgeStyle=orthogonalEdgeStyle;rounded=0;orthogonalLoop=1;jettySize=auto;html=1;exitX=0.75;exitY=1;exitDx=0;exitDy=0;entryX=0.75;entryY=0;entryDx=0;entryDy=0;fillColor=#e3c800;strokeColor=#B09500;strokeWidth=3;" edge="1" parent="1" source="CgorFY5DSfvTP4QPdiob-9" target="CgorFY5DSfvTP4QPdiob-10">
          <mxGeometry relative="1" as="geometry" />
        </mxCell>
        <mxCell id="CgorFY5DSfvTP4QPdiob-181" style="edgeStyle=orthogonalEdgeStyle;rounded=0;orthogonalLoop=1;jettySize=auto;html=1;exitX=0;exitY=1;exitDx=0;exitDy=0;entryX=0;entryY=0;entryDx=0;entryDy=0;fillColor=#fa6800;strokeColor=#C73500;strokeWidth=3;" edge="1" parent="1" source="CgorFY5DSfvTP4QPdiob-9" target="CgorFY5DSfvTP4QPdiob-10">
          <mxGeometry relative="1" as="geometry" />
        </mxCell>
        <mxCell id="CgorFY5DSfvTP4QPdiob-215" style="edgeStyle=orthogonalEdgeStyle;rounded=0;orthogonalLoop=1;jettySize=auto;html=1;exitX=1;exitY=1;exitDx=0;exitDy=0;entryX=1;entryY=0;entryDx=0;entryDy=0;fillColor=#bac8d3;strokeColor=#23445d;strokeWidth=3;" edge="1" parent="1" source="CgorFY5DSfvTP4QPdiob-9" target="CgorFY5DSfvTP4QPdiob-10">
          <mxGeometry relative="1" as="geometry" />
        </mxCell>
        <mxCell id="CgorFY5DSfvTP4QPdiob-9" value="&lt;b&gt;SA93031&lt;/b&gt;&lt;br&gt;loading" style="rounded=1;whiteSpace=wrap;html=1;fillColor=#ffe6cc;strokeColor=#d79b00;strokeWidth=3;" vertex="1" parent="1">
          <mxGeometry x="160" y="800" width="120" height="80" as="geometry" />
        </mxCell>
        <mxCell id="CgorFY5DSfvTP4QPdiob-69" style="edgeStyle=orthogonalEdgeStyle;rounded=0;orthogonalLoop=1;jettySize=auto;html=1;exitX=0.5;exitY=1;exitDx=0;exitDy=0;entryX=0.5;entryY=0;entryDx=0;entryDy=0;fillColor=#d80073;strokeColor=#A50040;strokeWidth=3;" edge="1" parent="1" source="CgorFY5DSfvTP4QPdiob-10" target="CgorFY5DSfvTP4QPdiob-11">
          <mxGeometry relative="1" as="geometry" />
        </mxCell>
        <mxCell id="CgorFY5DSfvTP4QPdiob-96" style="edgeStyle=orthogonalEdgeStyle;rounded=0;orthogonalLoop=1;jettySize=auto;html=1;exitX=0.25;exitY=1;exitDx=0;exitDy=0;entryX=0.25;entryY=0;entryDx=0;entryDy=0;fillColor=#60a917;strokeColor=#2D7600;strokeWidth=3;" edge="1" parent="1" source="CgorFY5DSfvTP4QPdiob-10" target="CgorFY5DSfvTP4QPdiob-11">
          <mxGeometry relative="1" as="geometry" />
        </mxCell>
        <mxCell id="CgorFY5DSfvTP4QPdiob-145" style="edgeStyle=orthogonalEdgeStyle;rounded=0;orthogonalLoop=1;jettySize=auto;html=1;exitX=0.75;exitY=1;exitDx=0;exitDy=0;entryX=0.75;entryY=0;entryDx=0;entryDy=0;fillColor=#e3c800;strokeColor=#B09500;strokeWidth=3;" edge="1" parent="1" source="CgorFY5DSfvTP4QPdiob-10" target="CgorFY5DSfvTP4QPdiob-11">
          <mxGeometry relative="1" as="geometry" />
        </mxCell>
        <mxCell id="CgorFY5DSfvTP4QPdiob-182" style="edgeStyle=orthogonalEdgeStyle;rounded=0;orthogonalLoop=1;jettySize=auto;html=1;exitX=0;exitY=1;exitDx=0;exitDy=0;entryX=0;entryY=0;entryDx=0;entryDy=0;fillColor=#fa6800;strokeColor=#C73500;strokeWidth=3;" edge="1" parent="1" source="CgorFY5DSfvTP4QPdiob-10" target="CgorFY5DSfvTP4QPdiob-11">
          <mxGeometry relative="1" as="geometry" />
        </mxCell>
        <mxCell id="CgorFY5DSfvTP4QPdiob-216" style="edgeStyle=orthogonalEdgeStyle;rounded=0;orthogonalLoop=1;jettySize=auto;html=1;exitX=1;exitY=1;exitDx=0;exitDy=0;entryX=1;entryY=0;entryDx=0;entryDy=0;fillColor=#bac8d3;strokeColor=#23445d;strokeWidth=3;" edge="1" parent="1" source="CgorFY5DSfvTP4QPdiob-10" target="CgorFY5DSfvTP4QPdiob-11">
          <mxGeometry relative="1" as="geometry" />
        </mxCell>
        <mxCell id="CgorFY5DSfvTP4QPdiob-10" value="&lt;b&gt;SA93032&lt;br&gt;&lt;/b&gt;rotor magnetization" style="rounded=1;whiteSpace=wrap;html=1;fillColor=#ffe6cc;strokeColor=#d79b00;strokeWidth=3;" vertex="1" parent="1">
          <mxGeometry x="160" y="920" width="120" height="80" as="geometry" />
        </mxCell>
        <mxCell id="CgorFY5DSfvTP4QPdiob-70" style="edgeStyle=orthogonalEdgeStyle;rounded=0;orthogonalLoop=1;jettySize=auto;html=1;exitX=0.5;exitY=1;exitDx=0;exitDy=0;entryX=0.5;entryY=0;entryDx=0;entryDy=0;fillColor=#d80073;strokeColor=#A50040;strokeWidth=3;" edge="1" parent="1" source="CgorFY5DSfvTP4QPdiob-11" target="CgorFY5DSfvTP4QPdiob-12">
          <mxGeometry relative="1" as="geometry" />
        </mxCell>
        <mxCell id="CgorFY5DSfvTP4QPdiob-97" style="edgeStyle=orthogonalEdgeStyle;rounded=0;orthogonalLoop=1;jettySize=auto;html=1;exitX=0.25;exitY=1;exitDx=0;exitDy=0;entryX=0.25;entryY=0;entryDx=0;entryDy=0;fillColor=#60a917;strokeColor=#2D7600;strokeWidth=3;" edge="1" parent="1" source="CgorFY5DSfvTP4QPdiob-11" target="CgorFY5DSfvTP4QPdiob-12">
          <mxGeometry relative="1" as="geometry" />
        </mxCell>
        <mxCell id="CgorFY5DSfvTP4QPdiob-146" style="edgeStyle=orthogonalEdgeStyle;rounded=0;orthogonalLoop=1;jettySize=auto;html=1;exitX=0.75;exitY=1;exitDx=0;exitDy=0;entryX=0.75;entryY=0;entryDx=0;entryDy=0;fillColor=#e3c800;strokeColor=#B09500;strokeWidth=3;" edge="1" parent="1" source="CgorFY5DSfvTP4QPdiob-11" target="CgorFY5DSfvTP4QPdiob-12">
          <mxGeometry relative="1" as="geometry" />
        </mxCell>
        <mxCell id="CgorFY5DSfvTP4QPdiob-183" style="edgeStyle=orthogonalEdgeStyle;rounded=0;orthogonalLoop=1;jettySize=auto;html=1;exitX=0;exitY=1;exitDx=0;exitDy=0;entryX=0;entryY=0;entryDx=0;entryDy=0;fillColor=#fa6800;strokeColor=#C73500;strokeWidth=3;" edge="1" parent="1" source="CgorFY5DSfvTP4QPdiob-11" target="CgorFY5DSfvTP4QPdiob-12">
          <mxGeometry relative="1" as="geometry" />
        </mxCell>
        <mxCell id="CgorFY5DSfvTP4QPdiob-217" style="edgeStyle=orthogonalEdgeStyle;rounded=0;orthogonalLoop=1;jettySize=auto;html=1;exitX=1;exitY=1;exitDx=0;exitDy=0;entryX=1;entryY=0;entryDx=0;entryDy=0;fillColor=#bac8d3;strokeColor=#23445d;strokeWidth=3;" edge="1" parent="1" source="CgorFY5DSfvTP4QPdiob-11" target="CgorFY5DSfvTP4QPdiob-12">
          <mxGeometry relative="1" as="geometry" />
        </mxCell>
        <mxCell id="CgorFY5DSfvTP4QPdiob-11" value="&lt;b&gt;SA93033&lt;/b&gt;&lt;br&gt;PCBA pre-press fit" style="rounded=1;whiteSpace=wrap;html=1;fillColor=#ffe6cc;strokeColor=#d79b00;strokeWidth=3;" vertex="1" parent="1">
          <mxGeometry x="160" y="1040" width="120" height="80" as="geometry" />
        </mxCell>
        <mxCell id="CgorFY5DSfvTP4QPdiob-71" style="edgeStyle=orthogonalEdgeStyle;rounded=0;orthogonalLoop=1;jettySize=auto;html=1;exitX=0.5;exitY=1;exitDx=0;exitDy=0;entryX=0.5;entryY=0;entryDx=0;entryDy=0;fillColor=#d80073;strokeColor=#A50040;strokeWidth=3;" edge="1" parent="1" source="CgorFY5DSfvTP4QPdiob-12" target="CgorFY5DSfvTP4QPdiob-13">
          <mxGeometry relative="1" as="geometry" />
        </mxCell>
        <mxCell id="CgorFY5DSfvTP4QPdiob-98" style="edgeStyle=orthogonalEdgeStyle;rounded=0;orthogonalLoop=1;jettySize=auto;html=1;exitX=0.25;exitY=1;exitDx=0;exitDy=0;entryX=0.25;entryY=0;entryDx=0;entryDy=0;fillColor=#60a917;strokeColor=#2D7600;strokeWidth=3;" edge="1" parent="1" source="CgorFY5DSfvTP4QPdiob-12" target="CgorFY5DSfvTP4QPdiob-13">
          <mxGeometry relative="1" as="geometry" />
        </mxCell>
        <mxCell id="CgorFY5DSfvTP4QPdiob-147" style="edgeStyle=orthogonalEdgeStyle;rounded=0;orthogonalLoop=1;jettySize=auto;html=1;exitX=0.75;exitY=1;exitDx=0;exitDy=0;entryX=0.75;entryY=0;entryDx=0;entryDy=0;fillColor=#e3c800;strokeColor=#B09500;strokeWidth=3;" edge="1" parent="1" source="CgorFY5DSfvTP4QPdiob-12" target="CgorFY5DSfvTP4QPdiob-13">
          <mxGeometry relative="1" as="geometry" />
        </mxCell>
        <mxCell id="CgorFY5DSfvTP4QPdiob-184" style="edgeStyle=orthogonalEdgeStyle;rounded=0;orthogonalLoop=1;jettySize=auto;html=1;exitX=0;exitY=1;exitDx=0;exitDy=0;entryX=0;entryY=0;entryDx=0;entryDy=0;fillColor=#fa6800;strokeColor=#C73500;strokeWidth=3;" edge="1" parent="1" source="CgorFY5DSfvTP4QPdiob-12" target="CgorFY5DSfvTP4QPdiob-13">
          <mxGeometry relative="1" as="geometry" />
        </mxCell>
        <mxCell id="CgorFY5DSfvTP4QPdiob-218" style="edgeStyle=orthogonalEdgeStyle;rounded=0;orthogonalLoop=1;jettySize=auto;html=1;exitX=1;exitY=1;exitDx=0;exitDy=0;entryX=1;entryY=0;entryDx=0;entryDy=0;fillColor=#bac8d3;strokeColor=#23445d;strokeWidth=3;" edge="1" parent="1" source="CgorFY5DSfvTP4QPdiob-12" target="CgorFY5DSfvTP4QPdiob-13">
          <mxGeometry relative="1" as="geometry" />
        </mxCell>
        <mxCell id="CgorFY5DSfvTP4QPdiob-12" value="&lt;b&gt;SA93034&lt;br&gt;&lt;/b&gt;PCBA press fit" style="rounded=1;whiteSpace=wrap;html=1;fillColor=#ffe6cc;strokeColor=#d79b00;strokeWidth=3;" vertex="1" parent="1">
          <mxGeometry x="160" y="1160" width="120" height="80" as="geometry" />
        </mxCell>
        <mxCell id="CgorFY5DSfvTP4QPdiob-72" style="edgeStyle=orthogonalEdgeStyle;rounded=0;orthogonalLoop=1;jettySize=auto;html=1;exitX=0.5;exitY=1;exitDx=0;exitDy=0;entryX=0.5;entryY=0;entryDx=0;entryDy=0;fillColor=#d80073;strokeColor=#A50040;strokeWidth=3;" edge="1" parent="1" source="CgorFY5DSfvTP4QPdiob-13" target="CgorFY5DSfvTP4QPdiob-14">
          <mxGeometry relative="1" as="geometry" />
        </mxCell>
        <mxCell id="CgorFY5DSfvTP4QPdiob-99" style="edgeStyle=orthogonalEdgeStyle;rounded=0;orthogonalLoop=1;jettySize=auto;html=1;exitX=0.25;exitY=1;exitDx=0;exitDy=0;entryX=0.25;entryY=0;entryDx=0;entryDy=0;fillColor=#60a917;strokeColor=#2D7600;strokeWidth=3;" edge="1" parent="1" source="CgorFY5DSfvTP4QPdiob-13" target="CgorFY5DSfvTP4QPdiob-14">
          <mxGeometry relative="1" as="geometry" />
        </mxCell>
        <mxCell id="CgorFY5DSfvTP4QPdiob-148" style="edgeStyle=orthogonalEdgeStyle;rounded=0;orthogonalLoop=1;jettySize=auto;html=1;exitX=0.75;exitY=1;exitDx=0;exitDy=0;entryX=0.75;entryY=0;entryDx=0;entryDy=0;fillColor=#e3c800;strokeColor=#B09500;strokeWidth=3;" edge="1" parent="1" source="CgorFY5DSfvTP4QPdiob-13" target="CgorFY5DSfvTP4QPdiob-14">
          <mxGeometry relative="1" as="geometry" />
        </mxCell>
        <mxCell id="CgorFY5DSfvTP4QPdiob-185" style="edgeStyle=orthogonalEdgeStyle;rounded=0;orthogonalLoop=1;jettySize=auto;html=1;exitX=0;exitY=1;exitDx=0;exitDy=0;entryX=0;entryY=0;entryDx=0;entryDy=0;fillColor=#fa6800;strokeColor=#C73500;strokeWidth=3;" edge="1" parent="1" source="CgorFY5DSfvTP4QPdiob-13" target="CgorFY5DSfvTP4QPdiob-14">
          <mxGeometry relative="1" as="geometry" />
        </mxCell>
        <mxCell id="CgorFY5DSfvTP4QPdiob-219" style="edgeStyle=orthogonalEdgeStyle;rounded=0;orthogonalLoop=1;jettySize=auto;html=1;exitX=1;exitY=1;exitDx=0;exitDy=0;entryX=1;entryY=0;entryDx=0;entryDy=0;fillColor=#bac8d3;strokeColor=#23445d;strokeWidth=3;" edge="1" parent="1" source="CgorFY5DSfvTP4QPdiob-13" target="CgorFY5DSfvTP4QPdiob-14">
          <mxGeometry relative="1" as="geometry" />
        </mxCell>
        <mxCell id="CgorFY5DSfvTP4QPdiob-13" value="&lt;b&gt;SA93035&lt;/b&gt;&lt;br&gt;Ingun test" style="rounded=1;whiteSpace=wrap;html=1;fillColor=#ffe6cc;strokeColor=#d79b00;strokeWidth=3;" vertex="1" parent="1">
          <mxGeometry x="160" y="1280" width="120" height="80" as="geometry" />
        </mxCell>
        <mxCell id="CgorFY5DSfvTP4QPdiob-73" style="edgeStyle=orthogonalEdgeStyle;rounded=0;orthogonalLoop=1;jettySize=auto;html=1;exitX=0.5;exitY=1;exitDx=0;exitDy=0;entryX=0.5;entryY=0;entryDx=0;entryDy=0;fillColor=#d80073;strokeColor=#A50040;strokeWidth=3;" edge="1" parent="1" source="CgorFY5DSfvTP4QPdiob-14" target="CgorFY5DSfvTP4QPdiob-15">
          <mxGeometry relative="1" as="geometry" />
        </mxCell>
        <mxCell id="CgorFY5DSfvTP4QPdiob-100" style="edgeStyle=orthogonalEdgeStyle;rounded=0;orthogonalLoop=1;jettySize=auto;html=1;exitX=0.25;exitY=1;exitDx=0;exitDy=0;entryX=0.25;entryY=0;entryDx=0;entryDy=0;fillColor=#60a917;strokeColor=#2D7600;strokeWidth=3;" edge="1" parent="1" source="CgorFY5DSfvTP4QPdiob-14" target="CgorFY5DSfvTP4QPdiob-15">
          <mxGeometry relative="1" as="geometry" />
        </mxCell>
        <mxCell id="CgorFY5DSfvTP4QPdiob-149" style="edgeStyle=orthogonalEdgeStyle;rounded=0;orthogonalLoop=1;jettySize=auto;html=1;exitX=0.75;exitY=1;exitDx=0;exitDy=0;entryX=0.75;entryY=0;entryDx=0;entryDy=0;fillColor=#e3c800;strokeColor=#B09500;strokeWidth=3;" edge="1" parent="1" source="CgorFY5DSfvTP4QPdiob-14" target="CgorFY5DSfvTP4QPdiob-15">
          <mxGeometry relative="1" as="geometry" />
        </mxCell>
        <mxCell id="CgorFY5DSfvTP4QPdiob-186" style="edgeStyle=orthogonalEdgeStyle;rounded=0;orthogonalLoop=1;jettySize=auto;html=1;exitX=0;exitY=1;exitDx=0;exitDy=0;entryX=0;entryY=0;entryDx=0;entryDy=0;fillColor=#fa6800;strokeColor=#C73500;strokeWidth=3;" edge="1" parent="1" source="CgorFY5DSfvTP4QPdiob-14" target="CgorFY5DSfvTP4QPdiob-15">
          <mxGeometry relative="1" as="geometry" />
        </mxCell>
        <mxCell id="CgorFY5DSfvTP4QPdiob-220" style="edgeStyle=orthogonalEdgeStyle;rounded=0;orthogonalLoop=1;jettySize=auto;html=1;exitX=1;exitY=1;exitDx=0;exitDy=0;entryX=1;entryY=0;entryDx=0;entryDy=0;fillColor=#bac8d3;strokeColor=#23445d;strokeWidth=3;" edge="1" parent="1" source="CgorFY5DSfvTP4QPdiob-14" target="CgorFY5DSfvTP4QPdiob-15">
          <mxGeometry relative="1" as="geometry" />
        </mxCell>
        <mxCell id="CgorFY5DSfvTP4QPdiob-14" value="&lt;b&gt;SA93041&lt;/b&gt;&lt;br&gt;loading" style="rounded=1;whiteSpace=wrap;html=1;fillColor=#ffe6cc;strokeColor=#d79b00;strokeWidth=3;" vertex="1" parent="1">
          <mxGeometry x="160" y="1400" width="120" height="80" as="geometry" />
        </mxCell>
        <mxCell id="CgorFY5DSfvTP4QPdiob-74" style="edgeStyle=orthogonalEdgeStyle;rounded=0;orthogonalLoop=1;jettySize=auto;html=1;exitX=0.5;exitY=1;exitDx=0;exitDy=0;entryX=0.5;entryY=0;entryDx=0;entryDy=0;fillColor=#d80073;strokeColor=#A50040;strokeWidth=3;" edge="1" parent="1" source="CgorFY5DSfvTP4QPdiob-15" target="CgorFY5DSfvTP4QPdiob-17">
          <mxGeometry relative="1" as="geometry" />
        </mxCell>
        <mxCell id="CgorFY5DSfvTP4QPdiob-101" style="edgeStyle=orthogonalEdgeStyle;rounded=0;orthogonalLoop=1;jettySize=auto;html=1;exitX=0.25;exitY=1;exitDx=0;exitDy=0;entryX=0.25;entryY=0;entryDx=0;entryDy=0;fillColor=#60a917;strokeColor=#2D7600;strokeWidth=3;" edge="1" parent="1" source="CgorFY5DSfvTP4QPdiob-15" target="CgorFY5DSfvTP4QPdiob-17">
          <mxGeometry relative="1" as="geometry" />
        </mxCell>
        <mxCell id="CgorFY5DSfvTP4QPdiob-150" style="edgeStyle=orthogonalEdgeStyle;rounded=0;orthogonalLoop=1;jettySize=auto;html=1;exitX=0.75;exitY=1;exitDx=0;exitDy=0;entryX=0.75;entryY=0;entryDx=0;entryDy=0;fillColor=#e3c800;strokeColor=#B09500;strokeWidth=3;" edge="1" parent="1" source="CgorFY5DSfvTP4QPdiob-15" target="CgorFY5DSfvTP4QPdiob-17">
          <mxGeometry relative="1" as="geometry" />
        </mxCell>
        <mxCell id="CgorFY5DSfvTP4QPdiob-187" style="edgeStyle=orthogonalEdgeStyle;rounded=0;orthogonalLoop=1;jettySize=auto;html=1;exitX=0;exitY=1;exitDx=0;exitDy=0;entryX=0;entryY=0;entryDx=0;entryDy=0;fillColor=#fa6800;strokeColor=#C73500;strokeWidth=3;" edge="1" parent="1" source="CgorFY5DSfvTP4QPdiob-15" target="CgorFY5DSfvTP4QPdiob-17">
          <mxGeometry relative="1" as="geometry" />
        </mxCell>
        <mxCell id="CgorFY5DSfvTP4QPdiob-221" style="edgeStyle=orthogonalEdgeStyle;rounded=0;orthogonalLoop=1;jettySize=auto;html=1;exitX=1;exitY=1;exitDx=0;exitDy=0;entryX=1;entryY=0;entryDx=0;entryDy=0;fillColor=#bac8d3;strokeColor=#23445d;strokeWidth=3;" edge="1" parent="1" source="CgorFY5DSfvTP4QPdiob-15" target="CgorFY5DSfvTP4QPdiob-17">
          <mxGeometry relative="1" as="geometry" />
        </mxCell>
        <mxCell id="CgorFY5DSfvTP4QPdiob-15" value="&lt;b&gt;SA93042&lt;/b&gt;&lt;br&gt;PCBA heatstaking" style="rounded=1;whiteSpace=wrap;html=1;fillColor=#ffe6cc;strokeColor=#d79b00;strokeWidth=3;" vertex="1" parent="1">
          <mxGeometry x="160" y="1520" width="120" height="80" as="geometry" />
        </mxCell>
        <mxCell id="CgorFY5DSfvTP4QPdiob-75" style="edgeStyle=orthogonalEdgeStyle;rounded=0;orthogonalLoop=1;jettySize=auto;html=1;exitX=0.5;exitY=1;exitDx=0;exitDy=0;entryX=0.5;entryY=0;entryDx=0;entryDy=0;fillColor=#d80073;strokeColor=#A50040;strokeWidth=3;" edge="1" parent="1" source="CgorFY5DSfvTP4QPdiob-17" target="CgorFY5DSfvTP4QPdiob-18">
          <mxGeometry relative="1" as="geometry" />
        </mxCell>
        <mxCell id="CgorFY5DSfvTP4QPdiob-102" style="edgeStyle=orthogonalEdgeStyle;rounded=0;orthogonalLoop=1;jettySize=auto;html=1;exitX=0.25;exitY=1;exitDx=0;exitDy=0;entryX=0.25;entryY=0;entryDx=0;entryDy=0;fillColor=#60a917;strokeColor=#2D7600;strokeWidth=3;" edge="1" parent="1" source="CgorFY5DSfvTP4QPdiob-17" target="CgorFY5DSfvTP4QPdiob-18">
          <mxGeometry relative="1" as="geometry" />
        </mxCell>
        <mxCell id="CgorFY5DSfvTP4QPdiob-151" style="edgeStyle=orthogonalEdgeStyle;rounded=0;orthogonalLoop=1;jettySize=auto;html=1;exitX=0.75;exitY=1;exitDx=0;exitDy=0;entryX=0.75;entryY=0;entryDx=0;entryDy=0;fillColor=#e3c800;strokeColor=#B09500;strokeWidth=3;" edge="1" parent="1" source="CgorFY5DSfvTP4QPdiob-17" target="CgorFY5DSfvTP4QPdiob-18">
          <mxGeometry relative="1" as="geometry" />
        </mxCell>
        <mxCell id="CgorFY5DSfvTP4QPdiob-188" style="edgeStyle=orthogonalEdgeStyle;rounded=0;orthogonalLoop=1;jettySize=auto;html=1;exitX=0;exitY=1;exitDx=0;exitDy=0;entryX=0;entryY=0;entryDx=0;entryDy=0;fillColor=#fa6800;strokeColor=#C73500;strokeWidth=3;" edge="1" parent="1" source="CgorFY5DSfvTP4QPdiob-17" target="CgorFY5DSfvTP4QPdiob-18">
          <mxGeometry relative="1" as="geometry" />
        </mxCell>
        <mxCell id="CgorFY5DSfvTP4QPdiob-222" style="edgeStyle=orthogonalEdgeStyle;rounded=0;orthogonalLoop=1;jettySize=auto;html=1;exitX=1;exitY=1;exitDx=0;exitDy=0;entryX=1;entryY=0;entryDx=0;entryDy=0;fillColor=#bac8d3;strokeColor=#23445d;strokeWidth=3;" edge="1" parent="1" source="CgorFY5DSfvTP4QPdiob-17" target="CgorFY5DSfvTP4QPdiob-18">
          <mxGeometry relative="1" as="geometry" />
        </mxCell>
        <mxCell id="CgorFY5DSfvTP4QPdiob-17" value="&lt;b&gt;SA93043&lt;/b&gt;&lt;br&gt;motor test" style="rounded=1;whiteSpace=wrap;html=1;fillColor=#ffe6cc;strokeColor=#d79b00;strokeWidth=3;" vertex="1" parent="1">
          <mxGeometry x="160" y="1640" width="120" height="80" as="geometry" />
        </mxCell>
        <mxCell id="CgorFY5DSfvTP4QPdiob-76" style="edgeStyle=orthogonalEdgeStyle;rounded=0;orthogonalLoop=1;jettySize=auto;html=1;exitX=0.5;exitY=1;exitDx=0;exitDy=0;entryX=0.5;entryY=0;entryDx=0;entryDy=0;fillColor=#d80073;strokeColor=#A50040;strokeWidth=3;" edge="1" parent="1" source="CgorFY5DSfvTP4QPdiob-18" target="CgorFY5DSfvTP4QPdiob-19">
          <mxGeometry relative="1" as="geometry" />
        </mxCell>
        <mxCell id="CgorFY5DSfvTP4QPdiob-103" style="edgeStyle=orthogonalEdgeStyle;rounded=0;orthogonalLoop=1;jettySize=auto;html=1;exitX=0.25;exitY=1;exitDx=0;exitDy=0;entryX=0.25;entryY=0;entryDx=0;entryDy=0;fillColor=#60a917;strokeColor=#2D7600;strokeWidth=3;" edge="1" parent="1" source="CgorFY5DSfvTP4QPdiob-18" target="CgorFY5DSfvTP4QPdiob-19">
          <mxGeometry relative="1" as="geometry" />
        </mxCell>
        <mxCell id="CgorFY5DSfvTP4QPdiob-152" style="edgeStyle=orthogonalEdgeStyle;rounded=0;orthogonalLoop=1;jettySize=auto;html=1;exitX=0.75;exitY=1;exitDx=0;exitDy=0;entryX=0.75;entryY=0;entryDx=0;entryDy=0;fillColor=#e3c800;strokeColor=#B09500;strokeWidth=3;" edge="1" parent="1" source="CgorFY5DSfvTP4QPdiob-18" target="CgorFY5DSfvTP4QPdiob-19">
          <mxGeometry relative="1" as="geometry" />
        </mxCell>
        <mxCell id="CgorFY5DSfvTP4QPdiob-189" style="edgeStyle=orthogonalEdgeStyle;rounded=0;orthogonalLoop=1;jettySize=auto;html=1;exitX=0;exitY=1;exitDx=0;exitDy=0;entryX=0;entryY=0;entryDx=0;entryDy=0;fillColor=#fa6800;strokeColor=#C73500;strokeWidth=3;" edge="1" parent="1" source="CgorFY5DSfvTP4QPdiob-18" target="CgorFY5DSfvTP4QPdiob-19">
          <mxGeometry relative="1" as="geometry" />
        </mxCell>
        <mxCell id="CgorFY5DSfvTP4QPdiob-224" style="edgeStyle=orthogonalEdgeStyle;rounded=0;orthogonalLoop=1;jettySize=auto;html=1;exitX=1;exitY=1;exitDx=0;exitDy=0;entryX=1;entryY=0;entryDx=0;entryDy=0;fillColor=#bac8d3;strokeColor=#23445d;strokeWidth=3;" edge="1" parent="1" source="CgorFY5DSfvTP4QPdiob-18" target="CgorFY5DSfvTP4QPdiob-19">
          <mxGeometry relative="1" as="geometry" />
        </mxCell>
        <mxCell id="CgorFY5DSfvTP4QPdiob-18" value="&lt;b&gt;SA93044&lt;/b&gt;&lt;br&gt;gear axle greasing" style="rounded=1;whiteSpace=wrap;html=1;fillColor=#ffe6cc;strokeColor=#d79b00;strokeWidth=3;" vertex="1" parent="1">
          <mxGeometry x="160" y="1760" width="120" height="80" as="geometry" />
        </mxCell>
        <mxCell id="CgorFY5DSfvTP4QPdiob-77" style="edgeStyle=orthogonalEdgeStyle;rounded=0;orthogonalLoop=1;jettySize=auto;html=1;exitX=0.5;exitY=1;exitDx=0;exitDy=0;entryX=0.5;entryY=0;entryDx=0;entryDy=0;fillColor=#d80073;strokeColor=#A50040;strokeWidth=3;" edge="1" parent="1" source="CgorFY5DSfvTP4QPdiob-19" target="CgorFY5DSfvTP4QPdiob-20">
          <mxGeometry relative="1" as="geometry" />
        </mxCell>
        <mxCell id="CgorFY5DSfvTP4QPdiob-104" style="edgeStyle=orthogonalEdgeStyle;rounded=0;orthogonalLoop=1;jettySize=auto;html=1;exitX=0.25;exitY=1;exitDx=0;exitDy=0;entryX=0.25;entryY=0;entryDx=0;entryDy=0;fillColor=#60a917;strokeColor=#2D7600;strokeWidth=3;" edge="1" parent="1" source="CgorFY5DSfvTP4QPdiob-19" target="CgorFY5DSfvTP4QPdiob-20">
          <mxGeometry relative="1" as="geometry" />
        </mxCell>
        <mxCell id="CgorFY5DSfvTP4QPdiob-153" style="edgeStyle=orthogonalEdgeStyle;rounded=0;orthogonalLoop=1;jettySize=auto;html=1;exitX=0.75;exitY=1;exitDx=0;exitDy=0;entryX=0.75;entryY=0;entryDx=0;entryDy=0;fillColor=#e3c800;strokeColor=#B09500;strokeWidth=3;" edge="1" parent="1" source="CgorFY5DSfvTP4QPdiob-19" target="CgorFY5DSfvTP4QPdiob-20">
          <mxGeometry relative="1" as="geometry" />
        </mxCell>
        <mxCell id="CgorFY5DSfvTP4QPdiob-190" style="edgeStyle=orthogonalEdgeStyle;rounded=0;orthogonalLoop=1;jettySize=auto;html=1;exitX=0;exitY=1;exitDx=0;exitDy=0;entryX=0;entryY=0;entryDx=0;entryDy=0;fillColor=#fa6800;strokeColor=#C73500;strokeWidth=3;" edge="1" parent="1" source="CgorFY5DSfvTP4QPdiob-19" target="CgorFY5DSfvTP4QPdiob-20">
          <mxGeometry relative="1" as="geometry" />
        </mxCell>
        <mxCell id="CgorFY5DSfvTP4QPdiob-225" style="edgeStyle=orthogonalEdgeStyle;rounded=0;orthogonalLoop=1;jettySize=auto;html=1;exitX=1;exitY=1;exitDx=0;exitDy=0;entryX=1;entryY=0;entryDx=0;entryDy=0;fillColor=#bac8d3;strokeColor=#23445d;strokeWidth=3;" edge="1" parent="1" source="CgorFY5DSfvTP4QPdiob-19" target="CgorFY5DSfvTP4QPdiob-20">
          <mxGeometry relative="1" as="geometry" />
        </mxCell>
        <mxCell id="CgorFY5DSfvTP4QPdiob-19" value="&lt;b&gt;SA93051&lt;/b&gt;&lt;br&gt;loading" style="rounded=1;whiteSpace=wrap;html=1;fillColor=#ffe6cc;strokeColor=#d79b00;strokeWidth=3;" vertex="1" parent="1">
          <mxGeometry x="160" y="1880" width="120" height="80" as="geometry" />
        </mxCell>
        <mxCell id="CgorFY5DSfvTP4QPdiob-78" style="edgeStyle=orthogonalEdgeStyle;rounded=0;orthogonalLoop=1;jettySize=auto;html=1;exitX=0.5;exitY=1;exitDx=0;exitDy=0;entryX=0.5;entryY=0;entryDx=0;entryDy=0;fillColor=#d80073;strokeColor=#A50040;strokeWidth=3;" edge="1" parent="1" source="CgorFY5DSfvTP4QPdiob-20" target="CgorFY5DSfvTP4QPdiob-22">
          <mxGeometry relative="1" as="geometry" />
        </mxCell>
        <mxCell id="CgorFY5DSfvTP4QPdiob-105" style="edgeStyle=orthogonalEdgeStyle;rounded=0;orthogonalLoop=1;jettySize=auto;html=1;exitX=0.25;exitY=1;exitDx=0;exitDy=0;entryX=0.25;entryY=0;entryDx=0;entryDy=0;fillColor=#60a917;strokeColor=#2D7600;strokeWidth=3;" edge="1" parent="1" source="CgorFY5DSfvTP4QPdiob-20" target="CgorFY5DSfvTP4QPdiob-22">
          <mxGeometry relative="1" as="geometry" />
        </mxCell>
        <mxCell id="CgorFY5DSfvTP4QPdiob-154" style="edgeStyle=orthogonalEdgeStyle;rounded=0;orthogonalLoop=1;jettySize=auto;html=1;exitX=0.75;exitY=1;exitDx=0;exitDy=0;entryX=0.75;entryY=0;entryDx=0;entryDy=0;fillColor=#e3c800;strokeColor=#B09500;strokeWidth=3;" edge="1" parent="1" source="CgorFY5DSfvTP4QPdiob-20" target="CgorFY5DSfvTP4QPdiob-22">
          <mxGeometry relative="1" as="geometry" />
        </mxCell>
        <mxCell id="CgorFY5DSfvTP4QPdiob-191" style="edgeStyle=orthogonalEdgeStyle;rounded=0;orthogonalLoop=1;jettySize=auto;html=1;exitX=0;exitY=1;exitDx=0;exitDy=0;fillColor=#fa6800;strokeColor=#C73500;strokeWidth=3;" edge="1" parent="1" source="CgorFY5DSfvTP4QPdiob-20">
          <mxGeometry relative="1" as="geometry">
            <mxPoint x="160.14285714285734" y="2120" as="targetPoint" />
          </mxGeometry>
        </mxCell>
        <mxCell id="CgorFY5DSfvTP4QPdiob-226" style="edgeStyle=orthogonalEdgeStyle;rounded=0;orthogonalLoop=1;jettySize=auto;html=1;exitX=1;exitY=1;exitDx=0;exitDy=0;entryX=1;entryY=0;entryDx=0;entryDy=0;fillColor=#bac8d3;strokeColor=#23445d;strokeWidth=3;" edge="1" parent="1" source="CgorFY5DSfvTP4QPdiob-20" target="CgorFY5DSfvTP4QPdiob-22">
          <mxGeometry relative="1" as="geometry" />
        </mxCell>
        <mxCell id="CgorFY5DSfvTP4QPdiob-20" value="&lt;b&gt;SA93052&lt;/b&gt;&lt;br&gt;Gear Assembly" style="rounded=1;whiteSpace=wrap;html=1;fillColor=#ffe6cc;strokeColor=#d79b00;strokeWidth=3;" vertex="1" parent="1">
          <mxGeometry x="160" y="2000" width="120" height="80" as="geometry" />
        </mxCell>
        <mxCell id="CgorFY5DSfvTP4QPdiob-80" style="edgeStyle=orthogonalEdgeStyle;rounded=0;orthogonalLoop=1;jettySize=auto;html=1;exitX=0.5;exitY=1;exitDx=0;exitDy=0;entryX=0.5;entryY=0;entryDx=0;entryDy=0;fillColor=#d80073;strokeColor=#A50040;strokeWidth=3;" edge="1" parent="1" source="CgorFY5DSfvTP4QPdiob-21" target="CgorFY5DSfvTP4QPdiob-24">
          <mxGeometry relative="1" as="geometry" />
        </mxCell>
        <mxCell id="CgorFY5DSfvTP4QPdiob-107" style="edgeStyle=orthogonalEdgeStyle;rounded=0;orthogonalLoop=1;jettySize=auto;html=1;exitX=0.25;exitY=1;exitDx=0;exitDy=0;entryX=0.25;entryY=0;entryDx=0;entryDy=0;fillColor=#60a917;strokeColor=#2D7600;strokeWidth=3;" edge="1" parent="1" source="CgorFY5DSfvTP4QPdiob-21" target="CgorFY5DSfvTP4QPdiob-24">
          <mxGeometry relative="1" as="geometry" />
        </mxCell>
        <mxCell id="CgorFY5DSfvTP4QPdiob-156" style="edgeStyle=orthogonalEdgeStyle;rounded=0;orthogonalLoop=1;jettySize=auto;html=1;exitX=0.75;exitY=1;exitDx=0;exitDy=0;entryX=0.75;entryY=0;entryDx=0;entryDy=0;fillColor=#e3c800;strokeColor=#B09500;strokeWidth=3;" edge="1" parent="1" source="CgorFY5DSfvTP4QPdiob-21" target="CgorFY5DSfvTP4QPdiob-24">
          <mxGeometry relative="1" as="geometry" />
        </mxCell>
        <mxCell id="CgorFY5DSfvTP4QPdiob-193" style="edgeStyle=orthogonalEdgeStyle;rounded=0;orthogonalLoop=1;jettySize=auto;html=1;exitX=0;exitY=1;exitDx=0;exitDy=0;entryX=0;entryY=0;entryDx=0;entryDy=0;fillColor=#fa6800;strokeColor=#C73500;strokeWidth=3;" edge="1" parent="1" source="CgorFY5DSfvTP4QPdiob-21" target="CgorFY5DSfvTP4QPdiob-24">
          <mxGeometry relative="1" as="geometry" />
        </mxCell>
        <mxCell id="CgorFY5DSfvTP4QPdiob-228" style="edgeStyle=orthogonalEdgeStyle;rounded=0;orthogonalLoop=1;jettySize=auto;html=1;exitX=1;exitY=1;exitDx=0;exitDy=0;entryX=1;entryY=0;entryDx=0;entryDy=0;fillColor=#bac8d3;strokeColor=#23445d;strokeWidth=3;" edge="1" parent="1" source="CgorFY5DSfvTP4QPdiob-21" target="CgorFY5DSfvTP4QPdiob-24">
          <mxGeometry relative="1" as="geometry" />
        </mxCell>
        <mxCell id="CgorFY5DSfvTP4QPdiob-21" value="&lt;b&gt;SA93061&lt;/b&gt;&lt;br&gt;Laser welding actuator cover to valve assembly" style="rounded=1;whiteSpace=wrap;html=1;fillColor=#ffe6cc;strokeColor=#d79b00;strokeWidth=3;" vertex="1" parent="1">
          <mxGeometry x="160" y="2240" width="120" height="80" as="geometry" />
        </mxCell>
        <mxCell id="CgorFY5DSfvTP4QPdiob-79" style="edgeStyle=orthogonalEdgeStyle;rounded=0;orthogonalLoop=1;jettySize=auto;html=1;exitX=0.5;exitY=1;exitDx=0;exitDy=0;entryX=0.5;entryY=0;entryDx=0;entryDy=0;fillColor=#d80073;strokeColor=#A50040;strokeWidth=3;" edge="1" parent="1" source="CgorFY5DSfvTP4QPdiob-22" target="CgorFY5DSfvTP4QPdiob-21">
          <mxGeometry relative="1" as="geometry" />
        </mxCell>
        <mxCell id="CgorFY5DSfvTP4QPdiob-106" style="edgeStyle=orthogonalEdgeStyle;rounded=0;orthogonalLoop=1;jettySize=auto;html=1;exitX=0.25;exitY=1;exitDx=0;exitDy=0;entryX=0.25;entryY=0;entryDx=0;entryDy=0;fillColor=#60a917;strokeColor=#2D7600;strokeWidth=3;" edge="1" parent="1" source="CgorFY5DSfvTP4QPdiob-22" target="CgorFY5DSfvTP4QPdiob-21">
          <mxGeometry relative="1" as="geometry" />
        </mxCell>
        <mxCell id="CgorFY5DSfvTP4QPdiob-155" style="edgeStyle=orthogonalEdgeStyle;rounded=0;orthogonalLoop=1;jettySize=auto;html=1;exitX=0.75;exitY=1;exitDx=0;exitDy=0;entryX=0.75;entryY=0;entryDx=0;entryDy=0;fillColor=#e3c800;strokeColor=#B09500;strokeWidth=3;" edge="1" parent="1" source="CgorFY5DSfvTP4QPdiob-22" target="CgorFY5DSfvTP4QPdiob-21">
          <mxGeometry relative="1" as="geometry" />
        </mxCell>
        <mxCell id="CgorFY5DSfvTP4QPdiob-192" style="edgeStyle=orthogonalEdgeStyle;rounded=0;orthogonalLoop=1;jettySize=auto;html=1;exitX=0;exitY=1;exitDx=0;exitDy=0;entryX=0;entryY=0;entryDx=0;entryDy=0;fillColor=#fa6800;strokeColor=#C73500;strokeWidth=3;" edge="1" parent="1" source="CgorFY5DSfvTP4QPdiob-22" target="CgorFY5DSfvTP4QPdiob-21">
          <mxGeometry relative="1" as="geometry" />
        </mxCell>
        <mxCell id="CgorFY5DSfvTP4QPdiob-227" style="edgeStyle=orthogonalEdgeStyle;rounded=0;orthogonalLoop=1;jettySize=auto;html=1;exitX=1;exitY=1;exitDx=0;exitDy=0;entryX=1;entryY=0;entryDx=0;entryDy=0;fillColor=#bac8d3;strokeColor=#23445d;strokeWidth=3;" edge="1" parent="1" source="CgorFY5DSfvTP4QPdiob-22" target="CgorFY5DSfvTP4QPdiob-21">
          <mxGeometry relative="1" as="geometry" />
        </mxCell>
        <mxCell id="CgorFY5DSfvTP4QPdiob-22" value="&lt;b&gt;SA93053&lt;br&gt;&lt;/b&gt;Gear Assembly" style="rounded=1;whiteSpace=wrap;html=1;fillColor=#ffe6cc;strokeColor=#d79b00;strokeWidth=3;" vertex="1" parent="1">
          <mxGeometry x="160" y="2120" width="120" height="80" as="geometry" />
        </mxCell>
        <mxCell id="CgorFY5DSfvTP4QPdiob-82" style="edgeStyle=orthogonalEdgeStyle;rounded=0;orthogonalLoop=1;jettySize=auto;html=1;exitX=0.5;exitY=1;exitDx=0;exitDy=0;entryX=0.5;entryY=0;entryDx=0;entryDy=0;fillColor=#d80073;strokeColor=#A50040;strokeWidth=3;" edge="1" parent="1" source="CgorFY5DSfvTP4QPdiob-23" target="CgorFY5DSfvTP4QPdiob-26">
          <mxGeometry relative="1" as="geometry" />
        </mxCell>
        <mxCell id="CgorFY5DSfvTP4QPdiob-109" style="edgeStyle=orthogonalEdgeStyle;rounded=0;orthogonalLoop=1;jettySize=auto;html=1;exitX=0.25;exitY=1;exitDx=0;exitDy=0;entryX=0.25;entryY=0;entryDx=0;entryDy=0;fillColor=#60a917;strokeColor=#2D7600;strokeWidth=3;" edge="1" parent="1" source="CgorFY5DSfvTP4QPdiob-23" target="CgorFY5DSfvTP4QPdiob-26">
          <mxGeometry relative="1" as="geometry" />
        </mxCell>
        <mxCell id="CgorFY5DSfvTP4QPdiob-158" style="edgeStyle=orthogonalEdgeStyle;rounded=0;orthogonalLoop=1;jettySize=auto;html=1;exitX=0.75;exitY=1;exitDx=0;exitDy=0;entryX=0.75;entryY=0;entryDx=0;entryDy=0;fillColor=#e3c800;strokeColor=#B09500;strokeWidth=3;" edge="1" parent="1" source="CgorFY5DSfvTP4QPdiob-23" target="CgorFY5DSfvTP4QPdiob-26">
          <mxGeometry relative="1" as="geometry" />
        </mxCell>
        <mxCell id="CgorFY5DSfvTP4QPdiob-195" style="edgeStyle=orthogonalEdgeStyle;rounded=0;orthogonalLoop=1;jettySize=auto;html=1;exitX=0;exitY=1;exitDx=0;exitDy=0;entryX=0;entryY=0;entryDx=0;entryDy=0;fillColor=#fa6800;strokeColor=#C73500;strokeWidth=3;" edge="1" parent="1" source="CgorFY5DSfvTP4QPdiob-23" target="CgorFY5DSfvTP4QPdiob-26">
          <mxGeometry relative="1" as="geometry" />
        </mxCell>
        <mxCell id="CgorFY5DSfvTP4QPdiob-231" style="edgeStyle=orthogonalEdgeStyle;rounded=0;orthogonalLoop=1;jettySize=auto;html=1;exitX=1;exitY=1;exitDx=0;exitDy=0;entryX=1;entryY=0;entryDx=0;entryDy=0;fillColor=#bac8d3;strokeColor=#23445d;strokeWidth=3;" edge="1" parent="1" source="CgorFY5DSfvTP4QPdiob-23" target="CgorFY5DSfvTP4QPdiob-26">
          <mxGeometry relative="1" as="geometry" />
        </mxCell>
        <mxCell id="CgorFY5DSfvTP4QPdiob-23" value="&lt;b&gt;SA93081&lt;/b&gt;&lt;br&gt;Gear play learning&lt;br&gt;(93081/93082/93083)" style="rounded=1;whiteSpace=wrap;html=1;fillColor=#ffe6cc;strokeColor=#d79b00;strokeWidth=3;" vertex="1" parent="1">
          <mxGeometry x="160" y="2480" width="120" height="80" as="geometry" />
        </mxCell>
        <mxCell id="CgorFY5DSfvTP4QPdiob-81" style="edgeStyle=orthogonalEdgeStyle;rounded=0;orthogonalLoop=1;jettySize=auto;html=1;exitX=0.5;exitY=1;exitDx=0;exitDy=0;entryX=0.5;entryY=0;entryDx=0;entryDy=0;fillColor=#d80073;strokeColor=#A50040;strokeWidth=3;" edge="1" parent="1" source="CgorFY5DSfvTP4QPdiob-24" target="CgorFY5DSfvTP4QPdiob-23">
          <mxGeometry relative="1" as="geometry" />
        </mxCell>
        <mxCell id="CgorFY5DSfvTP4QPdiob-108" style="edgeStyle=orthogonalEdgeStyle;rounded=0;orthogonalLoop=1;jettySize=auto;html=1;exitX=0.25;exitY=1;exitDx=0;exitDy=0;entryX=0.25;entryY=0;entryDx=0;entryDy=0;fillColor=#60a917;strokeColor=#2D7600;strokeWidth=3;" edge="1" parent="1" source="CgorFY5DSfvTP4QPdiob-24" target="CgorFY5DSfvTP4QPdiob-23">
          <mxGeometry relative="1" as="geometry" />
        </mxCell>
        <mxCell id="CgorFY5DSfvTP4QPdiob-157" style="edgeStyle=orthogonalEdgeStyle;rounded=0;orthogonalLoop=1;jettySize=auto;html=1;exitX=0.75;exitY=1;exitDx=0;exitDy=0;entryX=0.75;entryY=0;entryDx=0;entryDy=0;fillColor=#e3c800;strokeColor=#B09500;strokeWidth=3;" edge="1" parent="1" source="CgorFY5DSfvTP4QPdiob-24" target="CgorFY5DSfvTP4QPdiob-23">
          <mxGeometry relative="1" as="geometry" />
        </mxCell>
        <mxCell id="CgorFY5DSfvTP4QPdiob-194" style="edgeStyle=orthogonalEdgeStyle;rounded=0;orthogonalLoop=1;jettySize=auto;html=1;exitX=0;exitY=1;exitDx=0;exitDy=0;entryX=0;entryY=0;entryDx=0;entryDy=0;fillColor=#fa6800;strokeColor=#C73500;strokeWidth=3;" edge="1" parent="1" source="CgorFY5DSfvTP4QPdiob-24" target="CgorFY5DSfvTP4QPdiob-23">
          <mxGeometry relative="1" as="geometry" />
        </mxCell>
        <mxCell id="CgorFY5DSfvTP4QPdiob-229" style="edgeStyle=orthogonalEdgeStyle;rounded=0;orthogonalLoop=1;jettySize=auto;html=1;exitX=1;exitY=1;exitDx=0;exitDy=0;entryX=1;entryY=0;entryDx=0;entryDy=0;fillColor=#bac8d3;strokeColor=#23445d;strokeWidth=3;" edge="1" parent="1" source="CgorFY5DSfvTP4QPdiob-24" target="CgorFY5DSfvTP4QPdiob-23">
          <mxGeometry relative="1" as="geometry" />
        </mxCell>
        <mxCell id="CgorFY5DSfvTP4QPdiob-24" value="&lt;b&gt;SA93071&lt;/b&gt;&lt;br&gt;Actuator leakage test,dump test" style="rounded=1;whiteSpace=wrap;html=1;fillColor=#ffe6cc;strokeColor=#d79b00;strokeWidth=3;" vertex="1" parent="1">
          <mxGeometry x="160" y="2360" width="120" height="80" as="geometry" />
        </mxCell>
        <mxCell id="CgorFY5DSfvTP4QPdiob-84" style="edgeStyle=orthogonalEdgeStyle;rounded=0;orthogonalLoop=1;jettySize=auto;html=1;exitX=0.5;exitY=1;exitDx=0;exitDy=0;entryX=0.5;entryY=0;entryDx=0;entryDy=0;fillColor=#d80073;strokeColor=#A50040;strokeWidth=3;" edge="1" parent="1" source="CgorFY5DSfvTP4QPdiob-25" target="CgorFY5DSfvTP4QPdiob-28">
          <mxGeometry relative="1" as="geometry" />
        </mxCell>
        <mxCell id="CgorFY5DSfvTP4QPdiob-111" style="edgeStyle=orthogonalEdgeStyle;rounded=0;orthogonalLoop=1;jettySize=auto;html=1;exitX=0.25;exitY=1;exitDx=0;exitDy=0;entryX=0.25;entryY=0;entryDx=0;entryDy=0;fillColor=#60a917;strokeColor=#2D7600;strokeWidth=3;" edge="1" parent="1" source="CgorFY5DSfvTP4QPdiob-25" target="CgorFY5DSfvTP4QPdiob-28">
          <mxGeometry relative="1" as="geometry" />
        </mxCell>
        <mxCell id="CgorFY5DSfvTP4QPdiob-160" style="edgeStyle=orthogonalEdgeStyle;rounded=0;orthogonalLoop=1;jettySize=auto;html=1;exitX=0.75;exitY=1;exitDx=0;exitDy=0;entryX=0.75;entryY=0;entryDx=0;entryDy=0;fillColor=#e3c800;strokeColor=#B09500;strokeWidth=3;" edge="1" parent="1" source="CgorFY5DSfvTP4QPdiob-25" target="CgorFY5DSfvTP4QPdiob-28">
          <mxGeometry relative="1" as="geometry" />
        </mxCell>
        <mxCell id="CgorFY5DSfvTP4QPdiob-197" style="edgeStyle=orthogonalEdgeStyle;rounded=0;orthogonalLoop=1;jettySize=auto;html=1;exitX=0;exitY=1;exitDx=0;exitDy=0;entryX=0;entryY=0;entryDx=0;entryDy=0;fillColor=#fa6800;strokeColor=#C73500;strokeWidth=3;" edge="1" parent="1" source="CgorFY5DSfvTP4QPdiob-25" target="CgorFY5DSfvTP4QPdiob-28">
          <mxGeometry relative="1" as="geometry" />
        </mxCell>
        <mxCell id="CgorFY5DSfvTP4QPdiob-233" style="edgeStyle=orthogonalEdgeStyle;rounded=0;orthogonalLoop=1;jettySize=auto;html=1;exitX=1;exitY=1;exitDx=0;exitDy=0;entryX=1;entryY=0;entryDx=0;entryDy=0;fillColor=#bac8d3;strokeColor=#23445d;strokeWidth=3;" edge="1" parent="1" source="CgorFY5DSfvTP4QPdiob-25" target="CgorFY5DSfvTP4QPdiob-28">
          <mxGeometry relative="1" as="geometry" />
        </mxCell>
        <mxCell id="CgorFY5DSfvTP4QPdiob-25" value="&lt;b&gt;SA93101&lt;/b&gt;&lt;br&gt;Cover to valve housing laser weld operation" style="rounded=1;whiteSpace=wrap;html=1;fillColor=#ffe6cc;strokeColor=#d79b00;strokeWidth=3;" vertex="1" parent="1">
          <mxGeometry x="160" y="2720" width="120" height="80" as="geometry" />
        </mxCell>
        <mxCell id="CgorFY5DSfvTP4QPdiob-83" style="edgeStyle=orthogonalEdgeStyle;rounded=0;orthogonalLoop=1;jettySize=auto;html=1;exitX=0.5;exitY=1;exitDx=0;exitDy=0;entryX=0.5;entryY=0;entryDx=0;entryDy=0;fillColor=#d80073;strokeColor=#A50040;strokeWidth=3;" edge="1" parent="1" source="CgorFY5DSfvTP4QPdiob-26" target="CgorFY5DSfvTP4QPdiob-25">
          <mxGeometry relative="1" as="geometry" />
        </mxCell>
        <mxCell id="CgorFY5DSfvTP4QPdiob-110" style="edgeStyle=orthogonalEdgeStyle;rounded=0;orthogonalLoop=1;jettySize=auto;html=1;exitX=0.25;exitY=1;exitDx=0;exitDy=0;entryX=0.25;entryY=0;entryDx=0;entryDy=0;fillColor=#60a917;strokeColor=#2D7600;strokeWidth=3;" edge="1" parent="1" source="CgorFY5DSfvTP4QPdiob-26" target="CgorFY5DSfvTP4QPdiob-25">
          <mxGeometry relative="1" as="geometry" />
        </mxCell>
        <mxCell id="CgorFY5DSfvTP4QPdiob-159" style="edgeStyle=orthogonalEdgeStyle;rounded=0;orthogonalLoop=1;jettySize=auto;html=1;exitX=0.75;exitY=1;exitDx=0;exitDy=0;entryX=0.75;entryY=0;entryDx=0;entryDy=0;fillColor=#e3c800;strokeColor=#B09500;strokeWidth=3;" edge="1" parent="1" source="CgorFY5DSfvTP4QPdiob-26" target="CgorFY5DSfvTP4QPdiob-25">
          <mxGeometry relative="1" as="geometry" />
        </mxCell>
        <mxCell id="CgorFY5DSfvTP4QPdiob-198" style="edgeStyle=orthogonalEdgeStyle;rounded=0;orthogonalLoop=1;jettySize=auto;html=1;exitX=0;exitY=1;exitDx=0;exitDy=0;entryX=0;entryY=0;entryDx=0;entryDy=0;fillColor=#fa6800;strokeColor=#C73500;strokeWidth=3;" edge="1" parent="1" source="CgorFY5DSfvTP4QPdiob-26" target="CgorFY5DSfvTP4QPdiob-25">
          <mxGeometry relative="1" as="geometry" />
        </mxCell>
        <mxCell id="CgorFY5DSfvTP4QPdiob-232" style="edgeStyle=orthogonalEdgeStyle;rounded=0;orthogonalLoop=1;jettySize=auto;html=1;exitX=1;exitY=1;exitDx=0;exitDy=0;entryX=1;entryY=0;entryDx=0;entryDy=0;fillColor=#bac8d3;strokeColor=#23445d;strokeWidth=3;" edge="1" parent="1" source="CgorFY5DSfvTP4QPdiob-26" target="CgorFY5DSfvTP4QPdiob-25">
          <mxGeometry relative="1" as="geometry" />
        </mxCell>
        <mxCell id="CgorFY5DSfvTP4QPdiob-26" value="&lt;b&gt;SA93091&lt;/b&gt;&lt;br&gt;Valve housing cleaning" style="rounded=1;whiteSpace=wrap;html=1;fillColor=#ffe6cc;strokeColor=#d79b00;strokeWidth=3;" vertex="1" parent="1">
          <mxGeometry x="160" y="2600" width="120" height="80" as="geometry" />
        </mxCell>
        <mxCell id="CgorFY5DSfvTP4QPdiob-162" style="edgeStyle=orthogonalEdgeStyle;rounded=0;orthogonalLoop=1;jettySize=auto;html=1;exitX=0.5;exitY=1;exitDx=0;exitDy=0;entryX=0.5;entryY=0;entryDx=0;entryDy=0;fillColor=#e3c800;strokeColor=#B09500;strokeWidth=3;" edge="1" parent="1" source="CgorFY5DSfvTP4QPdiob-27" target="CgorFY5DSfvTP4QPdiob-29">
          <mxGeometry relative="1" as="geometry" />
        </mxCell>
        <mxCell id="CgorFY5DSfvTP4QPdiob-208" style="edgeStyle=orthogonalEdgeStyle;rounded=0;orthogonalLoop=1;jettySize=auto;html=1;exitX=0.75;exitY=1;exitDx=0;exitDy=0;entryX=0.5;entryY=0;entryDx=0;entryDy=0;fillColor=#bac8d3;strokeColor=#23445d;strokeWidth=3;" edge="1" parent="1" source="CgorFY5DSfvTP4QPdiob-27" target="CgorFY5DSfvTP4QPdiob-30">
          <mxGeometry relative="1" as="geometry" />
        </mxCell>
        <mxCell id="CgorFY5DSfvTP4QPdiob-238" style="edgeStyle=orthogonalEdgeStyle;rounded=0;orthogonalLoop=1;jettySize=auto;html=1;exitX=0;exitY=0.75;exitDx=0;exitDy=0;entryX=0;entryY=0;entryDx=0;entryDy=0;fillColor=#60a917;strokeColor=#2D7600;strokeWidth=3;" edge="1" parent="1" source="CgorFY5DSfvTP4QPdiob-27" target="CgorFY5DSfvTP4QPdiob-29">
          <mxGeometry relative="1" as="geometry" />
        </mxCell>
        <mxCell id="CgorFY5DSfvTP4QPdiob-27" value="&lt;b&gt;SA93131&lt;/b&gt;&lt;br&gt;Function test&lt;br&gt;(93131/93132)" style="rounded=1;whiteSpace=wrap;html=1;fillColor=#ffe6cc;strokeColor=#d79b00;strokeWidth=3;" vertex="1" parent="1">
          <mxGeometry x="160" y="2960" width="120" height="80" as="geometry" />
        </mxCell>
        <mxCell id="CgorFY5DSfvTP4QPdiob-85" style="edgeStyle=orthogonalEdgeStyle;rounded=0;orthogonalLoop=1;jettySize=auto;html=1;exitX=0.5;exitY=1;exitDx=0;exitDy=0;entryX=0.5;entryY=0;entryDx=0;entryDy=0;fillColor=#d80073;strokeColor=#A50040;strokeWidth=3;" edge="1" parent="1" source="CgorFY5DSfvTP4QPdiob-28" target="CgorFY5DSfvTP4QPdiob-27">
          <mxGeometry relative="1" as="geometry" />
        </mxCell>
        <mxCell id="CgorFY5DSfvTP4QPdiob-112" style="edgeStyle=orthogonalEdgeStyle;rounded=0;orthogonalLoop=1;jettySize=auto;html=1;exitX=0.25;exitY=1;exitDx=0;exitDy=0;entryX=0.25;entryY=0;entryDx=0;entryDy=0;fillColor=#60a917;strokeColor=#2D7600;strokeWidth=3;" edge="1" parent="1" source="CgorFY5DSfvTP4QPdiob-28" target="CgorFY5DSfvTP4QPdiob-27">
          <mxGeometry relative="1" as="geometry" />
        </mxCell>
        <mxCell id="CgorFY5DSfvTP4QPdiob-161" style="edgeStyle=orthogonalEdgeStyle;rounded=0;orthogonalLoop=1;jettySize=auto;html=1;exitX=0.75;exitY=1;exitDx=0;exitDy=0;entryX=0.75;entryY=0;entryDx=0;entryDy=0;fillColor=#e3c800;strokeColor=#B09500;strokeWidth=3;" edge="1" parent="1" source="CgorFY5DSfvTP4QPdiob-28" target="CgorFY5DSfvTP4QPdiob-27">
          <mxGeometry relative="1" as="geometry" />
        </mxCell>
        <mxCell id="CgorFY5DSfvTP4QPdiob-199" style="edgeStyle=orthogonalEdgeStyle;rounded=0;orthogonalLoop=1;jettySize=auto;html=1;exitX=0;exitY=1;exitDx=0;exitDy=0;entryX=0;entryY=0;entryDx=0;entryDy=0;fillColor=#fa6800;strokeColor=#C73500;strokeWidth=3;" edge="1" parent="1" source="CgorFY5DSfvTP4QPdiob-28" target="CgorFY5DSfvTP4QPdiob-27">
          <mxGeometry relative="1" as="geometry" />
        </mxCell>
        <mxCell id="CgorFY5DSfvTP4QPdiob-234" style="edgeStyle=orthogonalEdgeStyle;rounded=0;orthogonalLoop=1;jettySize=auto;html=1;exitX=1;exitY=1;exitDx=0;exitDy=0;entryX=1;entryY=0;entryDx=0;entryDy=0;fillColor=#bac8d3;strokeColor=#23445d;strokeWidth=3;" edge="1" parent="1" source="CgorFY5DSfvTP4QPdiob-28" target="CgorFY5DSfvTP4QPdiob-27">
          <mxGeometry relative="1" as="geometry" />
        </mxCell>
        <mxCell id="CgorFY5DSfvTP4QPdiob-28" value="&lt;b&gt;SA93111&lt;/b&gt;&lt;br&gt;leakage test&lt;br&gt;(93111/93112/93113/&lt;br&gt;93114)" style="rounded=1;whiteSpace=wrap;html=1;fillColor=#ffe6cc;strokeColor=#d79b00;strokeWidth=3;" vertex="1" parent="1">
          <mxGeometry x="160" y="2840" width="120" height="80" as="geometry" />
        </mxCell>
        <mxCell id="CgorFY5DSfvTP4QPdiob-134" style="edgeStyle=orthogonalEdgeStyle;rounded=0;orthogonalLoop=1;jettySize=auto;html=1;exitX=0;exitY=1;exitDx=0;exitDy=0;entryX=0;entryY=0;entryDx=0;entryDy=0;fillColor=#60a917;strokeColor=#2D7600;strokeWidth=3;" edge="1" parent="1" source="CgorFY5DSfvTP4QPdiob-29" target="CgorFY5DSfvTP4QPdiob-32">
          <mxGeometry relative="1" as="geometry" />
        </mxCell>
        <mxCell id="CgorFY5DSfvTP4QPdiob-163" style="edgeStyle=orthogonalEdgeStyle;rounded=0;orthogonalLoop=1;jettySize=auto;html=1;exitX=0.5;exitY=1;exitDx=0;exitDy=0;entryX=0.5;entryY=0;entryDx=0;entryDy=0;fillColor=#e3c800;strokeColor=#B09500;strokeWidth=3;" edge="1" parent="1" source="CgorFY5DSfvTP4QPdiob-29" target="CgorFY5DSfvTP4QPdiob-32">
          <mxGeometry relative="1" as="geometry" />
        </mxCell>
        <mxCell id="CgorFY5DSfvTP4QPdiob-200" style="edgeStyle=orthogonalEdgeStyle;rounded=0;orthogonalLoop=1;jettySize=auto;html=1;exitX=1;exitY=1;exitDx=0;exitDy=0;strokeWidth=3;" edge="1" parent="1" source="CgorFY5DSfvTP4QPdiob-29">
          <mxGeometry relative="1" as="geometry">
            <mxPoint x="200.14285714285734" y="3159.5714285714284" as="targetPoint" />
          </mxGeometry>
        </mxCell>
        <mxCell id="CgorFY5DSfvTP4QPdiob-203" style="edgeStyle=orthogonalEdgeStyle;rounded=0;orthogonalLoop=1;jettySize=auto;html=1;exitX=1;exitY=0.5;exitDx=0;exitDy=0;entryX=0;entryY=0.5;entryDx=0;entryDy=0;fillColor=#fa6800;strokeColor=#C73500;strokeWidth=3;" edge="1" parent="1" source="CgorFY5DSfvTP4QPdiob-29" target="CgorFY5DSfvTP4QPdiob-31">
          <mxGeometry relative="1" as="geometry" />
        </mxCell>
        <mxCell id="CgorFY5DSfvTP4QPdiob-29" value="&lt;b&gt;SA93141&lt;/b&gt;&lt;br&gt;DMC marking" style="rounded=1;whiteSpace=wrap;html=1;fillColor=#ffe6cc;strokeColor=#d79b00;strokeWidth=3;" vertex="1" parent="1">
          <mxGeometry x="80" y="3080" width="120" height="80" as="geometry" />
        </mxCell>
        <mxCell id="CgorFY5DSfvTP4QPdiob-30" value="&lt;b&gt;SA93141M&lt;br&gt;&lt;/b&gt;DMC marking&lt;b&gt;&lt;br&gt;&lt;/b&gt;" style="rounded=1;whiteSpace=wrap;html=1;fillColor=#ffe6cc;strokeColor=#d79b00;strokeWidth=3;" vertex="1" parent="1">
          <mxGeometry x="240" y="3080" width="120" height="80" as="geometry" />
        </mxCell>
        <mxCell id="CgorFY5DSfvTP4QPdiob-31" value="&lt;b&gt;SA93171M&lt;/b&gt;&lt;br&gt;Plastic Bracket assembly&lt;br&gt;(93171/93172)" style="rounded=1;whiteSpace=wrap;html=1;fillColor=#ffe6cc;strokeColor=#d79b00;strokeWidth=3;" vertex="1" parent="1">
          <mxGeometry x="240" y="3200" width="120" height="80" as="geometry" />
        </mxCell>
        <mxCell id="CgorFY5DSfvTP4QPdiob-32" value="&lt;b&gt;SA93171&lt;/b&gt;&lt;br&gt;Plastic Bracket assembly&lt;br&gt;(93171/93172)" style="rounded=1;whiteSpace=wrap;html=1;fillColor=#ffe6cc;strokeColor=#d79b00;strokeWidth=3;" vertex="1" parent="1">
          <mxGeometry x="80" y="3200" width="120" height="80" as="geometry" />
        </mxCell>
        <mxCell id="CgorFY5DSfvTP4QPdiob-49" style="edgeStyle=orthogonalEdgeStyle;rounded=0;orthogonalLoop=1;jettySize=auto;html=1;exitX=0.5;exitY=1;exitDx=0;exitDy=0;entryX=0.5;entryY=0;entryDx=0;entryDy=0;fillColor=#0050ef;strokeColor=#001DBC;strokeWidth=3;" edge="1" parent="1" source="CgorFY5DSfvTP4QPdiob-33" target="CgorFY5DSfvTP4QPdiob-34">
          <mxGeometry relative="1" as="geometry" />
        </mxCell>
        <mxCell id="CgorFY5DSfvTP4QPdiob-33" value="&lt;b&gt;SA96011&lt;/b&gt;&lt;br&gt;K-ring assembly" style="rounded=1;whiteSpace=wrap;html=1;fillColor=#0050ef;strokeColor=#001DBC;fontColor=#ffffff;strokeWidth=3;" vertex="1" parent="1">
          <mxGeometry x="-360" y="80" width="120" height="80" as="geometry" />
        </mxCell>
        <mxCell id="CgorFY5DSfvTP4QPdiob-50" style="edgeStyle=orthogonalEdgeStyle;rounded=0;orthogonalLoop=1;jettySize=auto;html=1;exitX=0.5;exitY=1;exitDx=0;exitDy=0;entryX=0.5;entryY=0;entryDx=0;entryDy=0;fillColor=#0050ef;strokeColor=#001DBC;strokeWidth=3;" edge="1" parent="1" source="CgorFY5DSfvTP4QPdiob-34" target="CgorFY5DSfvTP4QPdiob-37">
          <mxGeometry relative="1" as="geometry" />
        </mxCell>
        <mxCell id="CgorFY5DSfvTP4QPdiob-34" value="&lt;b&gt;SA96021&lt;br&gt;&lt;/b&gt;US-welding" style="rounded=1;whiteSpace=wrap;html=1;fillColor=#0050ef;strokeColor=#001DBC;fontColor=#ffffff;strokeWidth=3;" vertex="1" parent="1">
          <mxGeometry x="-360" y="200" width="120" height="80" as="geometry" />
        </mxCell>
        <mxCell id="CgorFY5DSfvTP4QPdiob-53" style="edgeStyle=orthogonalEdgeStyle;rounded=0;orthogonalLoop=1;jettySize=auto;html=1;exitX=0.5;exitY=1;exitDx=0;exitDy=0;entryX=0.5;entryY=0;entryDx=0;entryDy=0;fillColor=#0050ef;strokeColor=#001DBC;strokeWidth=3;" edge="1" parent="1" source="CgorFY5DSfvTP4QPdiob-35" target="CgorFY5DSfvTP4QPdiob-39">
          <mxGeometry relative="1" as="geometry" />
        </mxCell>
        <mxCell id="CgorFY5DSfvTP4QPdiob-35" value="&lt;b&gt;SA96042&lt;/b&gt;&lt;br&gt;Sealing assembly" style="rounded=1;whiteSpace=wrap;html=1;fillColor=#0050ef;strokeColor=#001DBC;fontColor=#ffffff;strokeWidth=3;" vertex="1" parent="1">
          <mxGeometry x="-360" y="560" width="120" height="80" as="geometry" />
        </mxCell>
        <mxCell id="CgorFY5DSfvTP4QPdiob-52" style="edgeStyle=orthogonalEdgeStyle;rounded=0;orthogonalLoop=1;jettySize=auto;html=1;exitX=0.5;exitY=1;exitDx=0;exitDy=0;entryX=0.5;entryY=0;entryDx=0;entryDy=0;fillColor=#0050ef;strokeColor=#001DBC;strokeWidth=3;" edge="1" parent="1" source="CgorFY5DSfvTP4QPdiob-36" target="CgorFY5DSfvTP4QPdiob-35">
          <mxGeometry relative="1" as="geometry" />
        </mxCell>
        <mxCell id="CgorFY5DSfvTP4QPdiob-36" value="&lt;b&gt;SA96041&lt;br&gt;&lt;/b&gt;Loading and unloading" style="rounded=1;whiteSpace=wrap;html=1;fillColor=#0050ef;strokeColor=#001DBC;fontColor=#ffffff;strokeWidth=3;" vertex="1" parent="1">
          <mxGeometry x="-360" y="440" width="120" height="80" as="geometry" />
        </mxCell>
        <mxCell id="CgorFY5DSfvTP4QPdiob-51" style="edgeStyle=orthogonalEdgeStyle;rounded=0;orthogonalLoop=1;jettySize=auto;html=1;exitX=0.5;exitY=1;exitDx=0;exitDy=0;entryX=0.5;entryY=0;entryDx=0;entryDy=0;fillColor=#0050ef;strokeColor=#001DBC;strokeWidth=3;" edge="1" parent="1" source="CgorFY5DSfvTP4QPdiob-37" target="CgorFY5DSfvTP4QPdiob-36">
          <mxGeometry relative="1" as="geometry" />
        </mxCell>
        <mxCell id="CgorFY5DSfvTP4QPdiob-37" value="&lt;b&gt;SA96031&lt;/b&gt;&lt;br&gt;Grease shaft area in K-ring" style="rounded=1;whiteSpace=wrap;html=1;fillColor=#0050ef;strokeColor=#001DBC;fontColor=#ffffff;strokeWidth=3;" vertex="1" parent="1">
          <mxGeometry x="-360" y="320" width="120" height="80" as="geometry" />
        </mxCell>
        <mxCell id="CgorFY5DSfvTP4QPdiob-55" style="edgeStyle=orthogonalEdgeStyle;rounded=0;orthogonalLoop=1;jettySize=auto;html=1;exitX=0.5;exitY=1;exitDx=0;exitDy=0;entryX=0.5;entryY=0;entryDx=0;entryDy=0;fillColor=#0050ef;strokeColor=#001DBC;strokeWidth=3;" edge="1" parent="1" source="CgorFY5DSfvTP4QPdiob-38" target="CgorFY5DSfvTP4QPdiob-41">
          <mxGeometry relative="1" as="geometry" />
        </mxCell>
        <mxCell id="CgorFY5DSfvTP4QPdiob-38" value="&lt;b&gt;SA96044&lt;/b&gt;&lt;br&gt;split cap" style="rounded=1;whiteSpace=wrap;html=1;fillColor=#0050ef;strokeColor=#001DBC;fontColor=#ffffff;strokeWidth=3;" vertex="1" parent="1">
          <mxGeometry x="-360" y="800" width="120" height="80" as="geometry" />
        </mxCell>
        <mxCell id="CgorFY5DSfvTP4QPdiob-54" style="edgeStyle=orthogonalEdgeStyle;rounded=0;orthogonalLoop=1;jettySize=auto;html=1;exitX=0.5;exitY=1;exitDx=0;exitDy=0;fillColor=#0050ef;strokeColor=#001DBC;strokeWidth=3;" edge="1" parent="1" source="CgorFY5DSfvTP4QPdiob-39" target="CgorFY5DSfvTP4QPdiob-38">
          <mxGeometry relative="1" as="geometry" />
        </mxCell>
        <mxCell id="CgorFY5DSfvTP4QPdiob-39" value="&lt;b&gt;SA96043&lt;/b&gt;&lt;br&gt;Slider assembly" style="rounded=1;whiteSpace=wrap;html=1;fillColor=#0050ef;strokeColor=#001DBC;fontColor=#ffffff;strokeWidth=3;" vertex="1" parent="1">
          <mxGeometry x="-360" y="680" width="120" height="80" as="geometry" />
        </mxCell>
        <mxCell id="CgorFY5DSfvTP4QPdiob-118" style="edgeStyle=orthogonalEdgeStyle;rounded=0;orthogonalLoop=1;jettySize=auto;html=1;exitX=0.75;exitY=1;exitDx=0;exitDy=0;entryX=0;entryY=0.25;entryDx=0;entryDy=0;fillColor=#60a917;strokeColor=#2D7600;strokeWidth=3;" edge="1" parent="1" source="CgorFY5DSfvTP4QPdiob-40" target="CgorFY5DSfvTP4QPdiob-22">
          <mxGeometry relative="1" as="geometry" />
        </mxCell>
        <mxCell id="CgorFY5DSfvTP4QPdiob-131" style="edgeStyle=orthogonalEdgeStyle;rounded=0;orthogonalLoop=1;jettySize=auto;html=1;exitX=0.25;exitY=1;exitDx=0;exitDy=0;entryX=0;entryY=0.75;entryDx=0;entryDy=0;fillColor=#e3c800;strokeColor=#B09500;strokeWidth=3;" edge="1" parent="1" source="CgorFY5DSfvTP4QPdiob-40" target="CgorFY5DSfvTP4QPdiob-22">
          <mxGeometry relative="1" as="geometry" />
        </mxCell>
        <mxCell id="CgorFY5DSfvTP4QPdiob-170" style="edgeStyle=orthogonalEdgeStyle;rounded=0;orthogonalLoop=1;jettySize=auto;html=1;exitX=1;exitY=1;exitDx=0;exitDy=0;strokeWidth=3;" edge="1" parent="1" source="CgorFY5DSfvTP4QPdiob-40">
          <mxGeometry relative="1" as="geometry">
            <mxPoint x="-239.64705882352928" y="1120.0588235294117" as="targetPoint" />
          </mxGeometry>
        </mxCell>
        <mxCell id="CgorFY5DSfvTP4QPdiob-40" value="&lt;b&gt;SA96060&lt;/b&gt;&lt;br&gt;laser welding" style="rounded=1;whiteSpace=wrap;html=1;fillColor=#0050ef;strokeColor=#001DBC;fontColor=#ffffff;strokeWidth=3;" vertex="1" parent="1">
          <mxGeometry x="-360" y="1040" width="120" height="80" as="geometry" />
        </mxCell>
        <mxCell id="CgorFY5DSfvTP4QPdiob-56" style="edgeStyle=orthogonalEdgeStyle;rounded=0;orthogonalLoop=1;jettySize=auto;html=1;exitX=0.5;exitY=1;exitDx=0;exitDy=0;entryX=0.5;entryY=0;entryDx=0;entryDy=0;fillColor=#0050ef;strokeColor=#001DBC;strokeWidth=3;" edge="1" parent="1" source="CgorFY5DSfvTP4QPdiob-41" target="CgorFY5DSfvTP4QPdiob-40">
          <mxGeometry relative="1" as="geometry" />
        </mxCell>
        <mxCell id="CgorFY5DSfvTP4QPdiob-41" value="&lt;b&gt;SA96051&lt;/b&gt;&lt;br&gt;Output gear assembly" style="rounded=1;whiteSpace=wrap;html=1;fillColor=#0050ef;strokeColor=#001DBC;fontColor=#ffffff;strokeWidth=3;" vertex="1" parent="1">
          <mxGeometry x="-360" y="920" width="120" height="80" as="geometry" />
        </mxCell>
        <mxCell id="CgorFY5DSfvTP4QPdiob-124" style="edgeStyle=orthogonalEdgeStyle;rounded=0;orthogonalLoop=1;jettySize=auto;html=1;exitX=0.5;exitY=1;exitDx=0;exitDy=0;entryX=0.5;entryY=0;entryDx=0;entryDy=0;fillColor=#1ba1e2;strokeColor=#006EAF;strokeWidth=3;" edge="1" parent="1" source="CgorFY5DSfvTP4QPdiob-42" target="CgorFY5DSfvTP4QPdiob-43">
          <mxGeometry relative="1" as="geometry" />
        </mxCell>
        <mxCell id="CgorFY5DSfvTP4QPdiob-42" value="&lt;b&gt;SA98010&lt;/b&gt;&lt;br&gt;Bent tube laser welding" style="rounded=1;whiteSpace=wrap;html=1;fillColor=#1ba1e2;strokeColor=#006EAF;fontColor=#ffffff;strokeWidth=3;" vertex="1" parent="1">
          <mxGeometry x="-720" y="80" width="120" height="80" as="geometry" />
        </mxCell>
        <mxCell id="CgorFY5DSfvTP4QPdiob-130" style="edgeStyle=orthogonalEdgeStyle;rounded=0;orthogonalLoop=1;jettySize=auto;html=1;exitX=1;exitY=0.75;exitDx=0;exitDy=0;entryX=0;entryY=0.75;entryDx=0;entryDy=0;fillColor=#e3c800;strokeColor=#B09500;strokeWidth=3;" edge="1" parent="1" source="CgorFY5DSfvTP4QPdiob-43" target="CgorFY5DSfvTP4QPdiob-33">
          <mxGeometry relative="1" as="geometry" />
        </mxCell>
        <mxCell id="CgorFY5DSfvTP4QPdiob-166" style="edgeStyle=orthogonalEdgeStyle;rounded=0;orthogonalLoop=1;jettySize=auto;html=1;exitX=1;exitY=0.5;exitDx=0;exitDy=0;strokeWidth=3;" edge="1" parent="1" source="CgorFY5DSfvTP4QPdiob-43">
          <mxGeometry relative="1" as="geometry">
            <mxPoint x="-599.8571428571427" y="239.5714285714289" as="targetPoint" />
          </mxGeometry>
        </mxCell>
        <mxCell id="CgorFY5DSfvTP4QPdiob-43" value="&lt;b&gt;SA98020&lt;br&gt;&lt;/b&gt;Bent tube leakage test" style="rounded=1;whiteSpace=wrap;html=1;fillColor=#1ba1e2;strokeColor=#006EAF;fontColor=#ffffff;strokeWidth=3;" vertex="1" parent="1">
          <mxGeometry x="-720" y="200" width="120" height="80" as="geometry" />
        </mxCell>
        <mxCell id="CgorFY5DSfvTP4QPdiob-48" value="&lt;div&gt;A3C0575740000&lt;/div&gt;&lt;div&gt;A3C0575750000&lt;/div&gt;&lt;div&gt;AAA2162780000&lt;/div&gt;&lt;div&gt;AAA2137250000&lt;/div&gt;&lt;div&gt;AAA9311800000&lt;/div&gt;&lt;div&gt;A3C0477590000&lt;/div&gt;&lt;div&gt;AAA2161980000&lt;/div&gt;&lt;div&gt;AAA2162770000&lt;/div&gt;&lt;div&gt;A3C0477600000&lt;/div&gt;&lt;div&gt;AAA9084120000&lt;/div&gt;&lt;div&gt;AAA2162790000&lt;/div&gt;&lt;div&gt;AAA9074400000&lt;/div&gt;" style="rounded=0;whiteSpace=wrap;html=1;fillColor=#0050ef;fontColor=#ffffff;strokeColor=#001DBC;strokeWidth=3;" vertex="1" parent="1">
          <mxGeometry x="-360" y="-200" width="120" height="190" as="geometry" />
        </mxCell>
        <mxCell id="CgorFY5DSfvTP4QPdiob-57" value="A3C0180700010&lt;br&gt;A3C0180680010" style="rounded=0;whiteSpace=wrap;html=1;fillColor=#d80073;fontColor=#ffffff;strokeColor=#A50040;strokeWidth=3;" vertex="1" parent="1">
          <mxGeometry y="-200" width="120" height="60" as="geometry" />
        </mxCell>
        <mxCell id="CgorFY5DSfvTP4QPdiob-58" value="&lt;b&gt;SA99011&lt;br&gt;&lt;/b&gt;Bracket assembly&lt;br&gt;(Metal Bracket)" style="rounded=1;whiteSpace=wrap;html=1;fillColor=#ffe6cc;strokeColor=#d79b00;strokeWidth=3;" vertex="1" parent="1">
          <mxGeometry x="600" y="1160" width="120" height="80" as="geometry" />
        </mxCell>
        <mxCell id="CgorFY5DSfvTP4QPdiob-59" value="&lt;b&gt;SA99011&lt;br&gt;&lt;/b&gt;Bracket assembly&lt;br&gt;(GWM)" style="rounded=1;whiteSpace=wrap;html=1;fillColor=#ffe6cc;strokeColor=#d79b00;strokeWidth=3;" vertex="1" parent="1">
          <mxGeometry x="760" y="1160" width="120" height="80" as="geometry" />
        </mxCell>
        <mxCell id="CgorFY5DSfvTP4QPdiob-236" style="edgeStyle=orthogonalEdgeStyle;rounded=0;orthogonalLoop=1;jettySize=auto;html=1;exitX=0.5;exitY=1;exitDx=0;exitDy=0;entryX=0.5;entryY=0;entryDx=0;entryDy=0;fillColor=#e1d5e7;strokeColor=#9673a6;strokeWidth=3;" edge="1" parent="1" source="CgorFY5DSfvTP4QPdiob-60" target="CgorFY5DSfvTP4QPdiob-61">
          <mxGeometry relative="1" as="geometry" />
        </mxCell>
        <mxCell id="CgorFY5DSfvTP4QPdiob-60" value="&lt;b&gt;SA98015&lt;/b&gt;&lt;br&gt;T-tube laser welding" style="rounded=1;whiteSpace=wrap;html=1;fillColor=#e1d5e7;strokeColor=#9673a6;strokeWidth=3;" vertex="1" parent="1">
          <mxGeometry x="680" y="560" width="120" height="80" as="geometry" />
        </mxCell>
        <mxCell id="CgorFY5DSfvTP4QPdiob-237" style="edgeStyle=orthogonalEdgeStyle;rounded=0;orthogonalLoop=1;jettySize=auto;html=1;exitX=0.5;exitY=1;exitDx=0;exitDy=0;entryX=0.5;entryY=0;entryDx=0;entryDy=0;fillColor=#bac8d3;strokeColor=#23445d;strokeWidth=3;" edge="1" parent="1" source="CgorFY5DSfvTP4QPdiob-61" target="CgorFY5DSfvTP4QPdiob-59">
          <mxGeometry relative="1" as="geometry" />
        </mxCell>
        <mxCell id="CgorFY5DSfvTP4QPdiob-61" value="&lt;b&gt;SA98022&lt;/b&gt;&lt;br&gt;T-tube leakage testing" style="rounded=1;whiteSpace=wrap;html=1;fillColor=#e1d5e7;strokeColor=#9673a6;strokeWidth=3;" vertex="1" parent="1">
          <mxGeometry x="680" y="680" width="120" height="80" as="geometry" />
        </mxCell>
        <mxCell id="CgorFY5DSfvTP4QPdiob-88" value="A3C0676820010&lt;br&gt;A3C0676830010&lt;br&gt;A3C0676840010&lt;br&gt;A3C0696310010&lt;br&gt;AAA2072040010" style="rounded=0;whiteSpace=wrap;html=1;fillColor=#60a917;fontColor=#ffffff;strokeColor=#2D7600;strokeWidth=3;" vertex="1" parent="1">
          <mxGeometry x="140" y="-200" width="120" height="90" as="geometry" />
        </mxCell>
        <mxCell id="CgorFY5DSfvTP4QPdiob-117" value="" style="endArrow=classic;html=1;rounded=0;exitX=0.5;exitY=1;exitDx=0;exitDy=0;entryX=0;entryY=0.5;entryDx=0;entryDy=0;fillColor=#d80073;strokeColor=#A50040;strokeWidth=3;" edge="1" parent="1" source="CgorFY5DSfvTP4QPdiob-40" target="CgorFY5DSfvTP4QPdiob-22">
          <mxGeometry width="50" height="50" relative="1" as="geometry">
            <mxPoint x="-120" y="1090" as="sourcePoint" />
            <mxPoint y="1100" as="targetPoint" />
            <Array as="points">
              <mxPoint x="-300" y="2160" />
            </Array>
          </mxGeometry>
        </mxCell>
        <mxCell id="CgorFY5DSfvTP4QPdiob-123" value="AAA9311520000&lt;br&gt;AAA9311550000&lt;br&gt;AAA9311530000&lt;br&gt;AAA9311540000" style="rounded=0;whiteSpace=wrap;html=1;fillColor=#1ba1e2;strokeColor=#006EAF;fontColor=#ffffff;strokeWidth=3;" vertex="1" parent="1">
          <mxGeometry x="-720" y="-80" width="120" height="70" as="geometry" />
        </mxCell>
        <mxCell id="CgorFY5DSfvTP4QPdiob-129" value="AAA2073300010&lt;br&gt;AAA2073300015&lt;br&gt;A3C0706090011&lt;br&gt;AAA9182320010&lt;br&gt;AAA9182320015&lt;br&gt;AAA2074090010&lt;br&gt;AAA2074090015&lt;br&gt;AAA2072050010" style="rounded=0;whiteSpace=wrap;html=1;fillColor=#e3c800;fontColor=#000000;strokeColor=#B09500;strokeWidth=3;" vertex="1" parent="1">
          <mxGeometry x="280" y="-200" width="120" height="130" as="geometry" />
        </mxCell>
        <mxCell id="CgorFY5DSfvTP4QPdiob-164" value="AAA2130500010&lt;br&gt;AAA2130500015&lt;br&gt;AAA9274500010&lt;br&gt;AAA9309500010&lt;br&gt;AAA9273000010&lt;br&gt;AAA9309510010&lt;br&gt;AAA9272990010" style="rounded=0;whiteSpace=wrap;html=1;fillColor=#fa6800;fontColor=#000000;strokeColor=#C73500;strokeWidth=3;" vertex="1" parent="1">
          <mxGeometry x="420" y="-200" width="120" height="130" as="geometry" />
        </mxCell>
        <mxCell id="CgorFY5DSfvTP4QPdiob-165" style="edgeStyle=orthogonalEdgeStyle;rounded=0;orthogonalLoop=1;jettySize=auto;html=1;exitX=0.5;exitY=1;exitDx=0;exitDy=0;strokeWidth=3;" edge="1" parent="1" source="CgorFY5DSfvTP4QPdiob-164" target="CgorFY5DSfvTP4QPdiob-164">
          <mxGeometry relative="1" as="geometry" />
        </mxCell>
        <mxCell id="CgorFY5DSfvTP4QPdiob-167" value="" style="endArrow=classic;html=1;rounded=0;entryX=0;entryY=0.5;entryDx=0;entryDy=0;fillColor=#fa6800;strokeColor=#C73500;strokeWidth=3;" edge="1" parent="1" target="CgorFY5DSfvTP4QPdiob-33">
          <mxGeometry width="50" height="50" relative="1" as="geometry">
            <mxPoint x="-600" y="240" as="sourcePoint" />
            <mxPoint x="-550" y="190" as="targetPoint" />
            <Array as="points">
              <mxPoint x="-500" y="240" />
              <mxPoint x="-500" y="120" />
            </Array>
          </mxGeometry>
        </mxCell>
        <mxCell id="CgorFY5DSfvTP4QPdiob-169" value="" style="endArrow=classic;html=1;rounded=0;entryX=0;entryY=0;entryDx=0;entryDy=0;exitX=1;exitY=0.5;exitDx=0;exitDy=0;fillColor=#fa6800;strokeColor=#C73500;shadow=0;fontStyle=0;strokeWidth=3;" edge="1" parent="1" source="CgorFY5DSfvTP4QPdiob-40" target="CgorFY5DSfvTP4QPdiob-22">
          <mxGeometry width="50" height="50" relative="1" as="geometry">
            <mxPoint x="-240" y="1130" as="sourcePoint" />
            <mxPoint x="-200" y="1070" as="targetPoint" />
            <Array as="points">
              <mxPoint x="-240" y="2120" />
            </Array>
          </mxGeometry>
        </mxCell>
        <mxCell id="CgorFY5DSfvTP4QPdiob-201" value="" style="endArrow=classic;html=1;rounded=0;entryX=0;entryY=0.5;entryDx=0;entryDy=0;fillColor=#fa6800;strokeColor=#C73500;strokeWidth=3;" edge="1" parent="1" target="CgorFY5DSfvTP4QPdiob-29">
          <mxGeometry width="50" height="50" relative="1" as="geometry">
            <mxPoint x="160" y="3000" as="sourcePoint" />
            <mxPoint x="210" y="2950" as="targetPoint" />
            <Array as="points">
              <mxPoint x="50" y="3000" />
              <mxPoint x="50" y="3120" />
            </Array>
          </mxGeometry>
        </mxCell>
        <mxCell id="CgorFY5DSfvTP4QPdiob-204" value="" style="endArrow=classic;html=1;rounded=0;exitX=1;exitY=0.5;exitDx=0;exitDy=0;entryX=0.5;entryY=1;entryDx=0;entryDy=0;fillColor=#fa6800;strokeColor=#C73500;strokeWidth=3;" edge="1" parent="1" source="CgorFY5DSfvTP4QPdiob-31" target="CgorFY5DSfvTP4QPdiob-58">
          <mxGeometry width="50" height="50" relative="1" as="geometry">
            <mxPoint x="480" y="3060" as="sourcePoint" />
            <mxPoint x="530" y="3010" as="targetPoint" />
            <Array as="points">
              <mxPoint x="660" y="3240" />
            </Array>
          </mxGeometry>
        </mxCell>
        <mxCell id="CgorFY5DSfvTP4QPdiob-205" value="AAA9048360010" style="rounded=0;whiteSpace=wrap;html=1;fillColor=#bac8d3;strokeColor=#23445d;strokeWidth=3;" vertex="1" parent="1">
          <mxGeometry x="560" y="-200" width="120" height="60" as="geometry" />
        </mxCell>
        <mxCell id="CgorFY5DSfvTP4QPdiob-207" value="" style="endArrow=classic;html=1;rounded=0;entryX=0;entryY=1;entryDx=0;entryDy=0;fillColor=#bac8d3;strokeColor=#23445d;strokeWidth=3;" edge="1" parent="1" target="CgorFY5DSfvTP4QPdiob-22">
          <mxGeometry width="50" height="50" relative="1" as="geometry">
            <mxPoint x="-360" y="1090" as="sourcePoint" />
            <mxPoint x="-310" y="1040" as="targetPoint" />
            <Array as="points">
              <mxPoint x="-360" y="2200" />
            </Array>
          </mxGeometry>
        </mxCell>
        <mxCell id="CgorFY5DSfvTP4QPdiob-235" value="" style="endArrow=classic;html=1;rounded=0;entryX=0;entryY=0.5;entryDx=0;entryDy=0;fillColor=#bac8d3;strokeColor=#23445d;strokeWidth=3;" edge="1" parent="1" target="CgorFY5DSfvTP4QPdiob-60">
          <mxGeometry width="50" height="50" relative="1" as="geometry">
            <mxPoint x="360" y="3130" as="sourcePoint" />
            <mxPoint x="410" y="3080" as="targetPoint" />
            <Array as="points">
              <mxPoint x="400" y="3130" />
              <mxPoint x="400" y="2540" />
              <mxPoint x="400" y="1920" />
              <mxPoint x="400" y="600" />
            </Array>
          </mxGeometry>
        </mxCell>
        <mxCell id="CgorFY5DSfvTP4QPdiob-239" value="" style="endArrow=classic;html=1;rounded=0;entryX=0.25;entryY=0;entryDx=0;entryDy=0;fillColor=#d80073;strokeColor=#A50040;exitX=0.25;exitY=1;exitDx=0;exitDy=0;strokeWidth=3;" edge="1" parent="1" source="CgorFY5DSfvTP4QPdiob-27" target="CgorFY5DSfvTP4QPdiob-29">
          <mxGeometry width="50" height="50" relative="1" as="geometry">
            <mxPoint x="160" y="3040" as="sourcePoint" />
            <mxPoint x="210" y="2990" as="targetPoint" />
            <Array as="points">
              <mxPoint x="110" y="3040" />
            </Array>
          </mxGeometry>
        </mxCell>
        <mxCell id="CgorFY5DSfvTP4QPdiob-240" value="AAA9407380000" style="rounded=0;whiteSpace=wrap;html=1;fillColor=#e1d5e7;strokeColor=#9673a6;strokeWidth=3;" vertex="1" parent="1">
          <mxGeometry x="680" y="460" width="120" height="60" as="geometry" />
        </mxCell>
        <mxCell id="CgorFY5DSfvTP4QPdiob-241" value="&lt;div&gt;&lt;font style=&quot;font-size: 15px;&quot;&gt;&lt;b&gt;FIN/SEMI CFCV&lt;/b&gt;&lt;/font&gt;&lt;/div&gt;" style="rounded=0;whiteSpace=wrap;html=1;opacity=20;align=right;verticalAlign=top;" vertex="1" parent="1">
          <mxGeometry width="440" height="3360" as="geometry" />
        </mxCell>
        <mxCell id="CgorFY5DSfvTP4QPdiob-242" value="&lt;font style=&quot;font-size: 15px;&quot;&gt;&lt;b&gt;SEMI CFCVS&lt;/b&gt;&lt;/font&gt;" style="rounded=0;whiteSpace=wrap;html=1;opacity=20;verticalAlign=top;align=right;" vertex="1" parent="1">
          <mxGeometry x="-480" width="360" height="1200" as="geometry" />
        </mxCell>
        <mxCell id="CgorFY5DSfvTP4QPdiob-243" value="SEMICFCVT" style="rounded=0;whiteSpace=wrap;html=1;opacity=20;verticalAlign=top;align=right;fontSize=15;fontStyle=1" vertex="1" parent="1">
          <mxGeometry x="-800" width="280" height="360" as="geometry" />
        </mxCell>
        <mxCell id="CgorFY5DSfvTP4QPdiob-244" value="SEMI CFCVT" style="rounded=0;whiteSpace=wrap;html=1;opacity=20;verticalAlign=top;align=right;fontSize=15;fontStyle=1" vertex="1" parent="1">
          <mxGeometry x="560" y="380" width="360" height="460" as="geometry" />
        </mxCell>
        <mxCell id="CgorFY5DSfvTP4QPdiob-245" value="&lt;font style=&quot;font-size: 15px;&quot;&gt;&lt;b&gt;FIN CFCVB&lt;/b&gt;&lt;/font&gt;" style="rounded=0;whiteSpace=wrap;html=1;opacity=20;verticalAlign=top;align=right;" vertex="1" parent="1">
          <mxGeometry x="510" y="1090" width="440" height="240" as="geometry" />
        </mxCell>
        <mxCell id="CgorFY5DSfvTP4QPdiob-246" value="" style="endArrow=classic;html=1;rounded=0;fillColor=#1ba1e2;strokeColor=#006EAF;strokeWidth=3;" edge="1" parent="1">
          <mxGeometry width="50" height="50" relative="1" as="geometry">
            <mxPoint x="-720" y="-100" as="sourcePoint" />
            <mxPoint x="-610" y="-100" as="targetPoint" />
          </mxGeometry>
        </mxCell>
        <mxCell id="CgorFY5DSfvTP4QPdiob-247" value="" style="endArrow=classic;html=1;rounded=0;fillColor=#0050ef;strokeColor=#001DBC;strokeWidth=3;" edge="1" parent="1">
          <mxGeometry width="50" height="50" relative="1" as="geometry">
            <mxPoint x="-360" y="-220" as="sourcePoint" />
            <mxPoint x="-250" y="-220" as="targetPoint" />
          </mxGeometry>
        </mxCell>
        <mxCell id="CgorFY5DSfvTP4QPdiob-248" value="" style="endArrow=classic;html=1;rounded=0;fillColor=#d80073;strokeColor=#A50040;strokeWidth=3;" edge="1" parent="1">
          <mxGeometry width="50" height="50" relative="1" as="geometry">
            <mxPoint y="-220" as="sourcePoint" />
            <mxPoint x="110" y="-220" as="targetPoint" />
          </mxGeometry>
        </mxCell>
        <mxCell id="CgorFY5DSfvTP4QPdiob-249" value="" style="endArrow=classic;html=1;rounded=0;fillColor=#60a917;strokeColor=#2D7600;strokeWidth=3;" edge="1" parent="1">
          <mxGeometry width="50" height="50" relative="1" as="geometry">
            <mxPoint x="140" y="-220" as="sourcePoint" />
            <mxPoint x="250" y="-220" as="targetPoint" />
          </mxGeometry>
        </mxCell>
        <mxCell id="CgorFY5DSfvTP4QPdiob-250" value="" style="endArrow=classic;html=1;rounded=0;fillColor=#e3c800;strokeColor=#B09500;strokeWidth=3;" edge="1" parent="1">
          <mxGeometry width="50" height="50" relative="1" as="geometry">
            <mxPoint x="280" y="-220" as="sourcePoint" />
            <mxPoint x="390" y="-220" as="targetPoint" />
          </mxGeometry>
        </mxCell>
        <mxCell id="CgorFY5DSfvTP4QPdiob-251" value="" style="endArrow=classic;html=1;rounded=0;fillColor=#fa6800;strokeColor=#C73500;strokeWidth=3;" edge="1" parent="1">
          <mxGeometry width="50" height="50" relative="1" as="geometry">
            <mxPoint x="420" y="-220" as="sourcePoint" />
            <mxPoint x="530" y="-220" as="targetPoint" />
          </mxGeometry>
        </mxCell>
        <mxCell id="CgorFY5DSfvTP4QPdiob-252" value="" style="endArrow=classic;html=1;rounded=0;fillColor=#bac8d3;strokeColor=#23445d;strokeWidth=3;" edge="1" parent="1">
          <mxGeometry width="50" height="50" relative="1" as="geometry">
            <mxPoint x="560" y="-220" as="sourcePoint" />
            <mxPoint x="670" y="-220" as="targetPoint" />
          </mxGeometry>
        </mxCell>
        <mxCell id="CgorFY5DSfvTP4QPdiob-254" value="" style="endArrow=classic;html=1;rounded=0;entryX=0.639;entryY=0.13;entryDx=0;entryDy=0;entryPerimeter=0;fillColor=#e1d5e7;strokeColor=#9673a6;strokeWidth=3;" edge="1" parent="1" target="CgorFY5DSfvTP4QPdiob-244">
          <mxGeometry width="50" height="50" relative="1" as="geometry">
            <mxPoint x="680" y="440" as="sourcePoint" />
            <mxPoint x="730" y="390" as="targetPoint" />
          </mxGeometry>
        </mxCell>
      </root>
    </mxGraphModel>
  </diagram>
</mxfile>
